<?xml version="1.0" encoding="UTF-8" standalone="no"?>
<!DOCTYPE svg PUBLIC "-//W3C//DTD SVG 1.1//EN"
 "http://www.w3.org/Graphics/SVG/1.1/DTD/svg11.dtd">
<!-- Generated by graphviz version 14.1.5 (20260411.2331)
 -->
<!-- Title: vendor_ticket_agent_workflow Pages: 1 -->
<svg width="1198pt" height="1875pt"
 viewBox="0.00 0.00 1198.00 1875.00" xmlns="http://www.w3.org/2000/svg" xmlns:xlink="http://www.w3.org/1999/xlink">
<g id="graph0" class="graph" transform="scale(1 1) rotate(0) translate(4 1871)">
<title>vendor_ticket_agent_workflow</title>
<polygon fill="#f8fafc" stroke="none" points="-4,4 -4,-1871 1194,-1871 1194,4 -4,4"/>
<text xml:space="preserve" text-anchor="middle" x="595" y="-1852.55" font-family="Helvetica,sans-Serif" font-size="11.00">Inchand AI — Vendor Ticket Agent Workflow</text>
<g id="clust1" class="cluster">
<title>cluster_runtime</title>
<path fill="#ffffff" stroke="#94a3b8" d="M364,-762.5C364,-762.5 680,-762.5 680,-762.5 686,-762.5 692,-768.5 692,-774.5 692,-774.5 692,-1286.5 692,-1286.5 692,-1292.5 686,-1298.5 680,-1298.5 680,-1298.5 364,-1298.5 364,-1298.5 358,-1298.5 352,-1292.5 352,-1286.5 352,-1286.5 352,-774.5 352,-774.5 352,-768.5 358,-762.5 364,-762.5"/>
<text xml:space="preserve" text-anchor="middle" x="522" y="-1284.05" font-family="Helvetica,sans-Serif" font-size="11.00">Runtime — LangGraph</text>
</g>
<g id="clust2" class="cluster">
<title>cluster_retrieval</title>
<path fill="#f0f9ff" stroke="#0369a1" d="M209,-653.75C209,-653.75 331,-653.75 331,-653.75 337,-653.75 343,-659.75 343,-665.75 343,-665.75 343,-913.5 343,-913.5 343,-919.5 337,-925.5 331,-925.5 331,-925.5 209,-925.5 209,-925.5 203,-925.5 197,-919.5 197,-913.5 197,-913.5 197,-665.75 197,-665.75 197,-659.75 203,-653.75 209,-653.75"/>
<text xml:space="preserve" text-anchor="middle" x="270" y="-911.05" font-family="Helvetica,sans-Serif" font-size="11.00">Retrieval layer (supporting)</text>
</g>
<g id="clust3" class="cluster">
<title>cluster_specialists</title>
<path fill="#faf5ff" stroke="#7c3aed" d="M369,-8C369,-8 482,-8 482,-8 488,-8 494,-14 494,-20 494,-20 494,-713.75 494,-713.75 494,-719.75 488,-725.75 482,-725.75 482,-725.75 369,-725.75 369,-725.75 363,-725.75 357,-719.75 357,-713.75 357,-713.75 357,-20 357,-20 357,-14 363,-8 369,-8"/>
<text xml:space="preserve" text-anchor="middle" x="425.5" y="-711.3" font-family="Helvetica,sans-Serif" font-size="11.00">Internal Agent Specialists</text>
</g>
<g id="clust4" class="cluster">
<title>cluster_route_obs</title>
<path fill="#fffbeb" stroke="#ca8a04" d="M20,-1326.5C20,-1326.5 680,-1326.5 680,-1326.5 686,-1326.5 692,-1332.5 692,-1338.5 692,-1338.5 692,-1511.25 692,-1511.25 692,-1517.25 686,-1523.25 680,-1523.25 680,-1523.25 20,-1523.25 20,-1523.25 14,-1523.25 8,-1517.25 8,-1511.25 8,-1511.25 8,-1338.5 8,-1338.5 8,-1332.5 14,-1326.5 20,-1326.5"/>
<text xml:space="preserve" text-anchor="middle" x="350" y="-1508.8" font-family="Helvetica,sans-Serif" font-size="11.00">Route Observability</text>
</g>
<g id="clust5" class="cluster">
<title>cluster_approval</title>
<path fill="#fff7ed" stroke="#ea580c" d="M962,-1326.5C962,-1326.5 1170,-1326.5 1170,-1326.5 1176,-1326.5 1182,-1332.5 1182,-1338.5 1182,-1338.5 1182,-1511.25 1182,-1511.25 1182,-1517.25 1176,-1523.25 1170,-1523.25 1170,-1523.25 962,-1523.25 962,-1523.25 956,-1523.25 950,-1517.25 950,-1511.25 950,-1511.25 950,-1338.5 950,-1338.5 950,-1332.5 956,-1326.5 962,-1326.5"/>
<text xml:space="preserve" text-anchor="middle" x="1066" y="-1508.8" font-family="Helvetica,sans-Serif" font-size="11.00">Validation &amp; Human Approval</text>
</g>
<g id="clust6" class="cluster">
<title>cluster_operator_hitl</title>
<path fill="#ecfdf5" stroke="#0f766e" d="M712,-1438.75C712,-1438.75 878,-1438.75 878,-1438.75 884,-1438.75 890,-1444.75 890,-1450.75 890,-1450.75 890,-1827 890,-1827 890,-1833 884,-1839 878,-1839 878,-1839 712,-1839 712,-1839 706,-1839 700,-1833 700,-1827 700,-1827 700,-1450.75 700,-1450.75 700,-1444.75 706,-1438.75 712,-1438.75"/>
<text xml:space="preserve" text-anchor="middle" x="795" y="-1824.55" font-family="Helvetica,sans-Serif" font-size="11.00">Operator HITL (API)</text>
</g>
<!-- fastapi -->
<g id="node1" class="node">
<title>fastapi</title>
<ellipse fill="#dcfce7" stroke="black" cx="414" cy="-1252.5" rx="54.29" ry="18"/>
<text xml:space="preserve" text-anchor="middle" x="414" y="-1248.62" font-family="Helvetica,sans-Serif" font-size="10.00">FastAPI Request</text>
</g>
<!-- langgraph -->
<g id="node2" class="node">
<title>langgraph</title>
<path fill="#eef2ff" stroke="black" d="M459.38,-1179.5C459.38,-1179.5 376.62,-1179.5 376.62,-1179.5 370.62,-1179.5 364.62,-1173.5 364.62,-1167.5 364.62,-1167.5 364.62,-1155.5 364.62,-1155.5 364.62,-1149.5 370.62,-1143.5 376.62,-1143.5 376.62,-1143.5 459.38,-1143.5 459.38,-1143.5 465.38,-1143.5 471.38,-1149.5 471.38,-1155.5 471.38,-1155.5 471.38,-1167.5 471.38,-1167.5 471.38,-1173.5 465.38,-1179.5 459.38,-1179.5"/>
<text xml:space="preserve" text-anchor="middle" x="418" y="-1157.62" font-family="Helvetica,sans-Serif" font-size="10.00">LangGraph Workflow</text>
</g>
<!-- fastapi&#45;&gt;langgraph -->
<g id="edge1" class="edge">
<title>fastapi&#45;&gt;langgraph</title>
<path fill="none" stroke="#334155" d="M416.46,-1234.08C416.46,-1234.08 416.46,-1191.4 416.46,-1191.4"/>
<polygon fill="#334155" stroke="#334155" points="419.96,-1191.4 416.46,-1181.4 412.96,-1191.4 419.96,-1191.4"/>
</g>
<!-- normalize_request -->
<g id="node3" class="node">
<title>normalize_request</title>
<path fill="#ffffff" stroke="black" d="M456.75,-1088.5C456.75,-1088.5 385.25,-1088.5 385.25,-1088.5 379.25,-1088.5 373.25,-1082.5 373.25,-1076.5 373.25,-1076.5 373.25,-1064.5 373.25,-1064.5 373.25,-1058.5 379.25,-1052.5 385.25,-1052.5 385.25,-1052.5 456.75,-1052.5 456.75,-1052.5 462.75,-1052.5 468.75,-1058.5 468.75,-1064.5 468.75,-1064.5 468.75,-1076.5 468.75,-1076.5 468.75,-1082.5 462.75,-1088.5 456.75,-1088.5"/>
<text xml:space="preserve" text-anchor="middle" x="421" y="-1066.62" font-family="Helvetica,sans-Serif" font-size="10.00">normalize_request</text>
</g>
<!-- langgraph&#45;&gt;normalize_request -->
<g id="edge2" class="edge">
<title>langgraph&#45;&gt;normalize_request</title>
<path fill="none" stroke="#334155" d="M421,-1143.08C421,-1143.08 421,-1100.4 421,-1100.4"/>
<polygon fill="#334155" stroke="#334155" points="424.5,-1100.4 421,-1090.4 417.5,-1100.4 424.5,-1100.4"/>
</g>
<!-- route_workflow -->
<g id="node4" class="node">
<title>route_workflow</title>
<path fill="#ffffff" stroke="black" d="M452,-997.5C452,-997.5 394,-997.5 394,-997.5 388,-997.5 382,-991.5 382,-985.5 382,-985.5 382,-973.5 382,-973.5 382,-967.5 388,-961.5 394,-961.5 394,-961.5 452,-961.5 452,-961.5 458,-961.5 464,-967.5 464,-973.5 464,-973.5 464,-985.5 464,-985.5 464,-991.5 458,-997.5 452,-997.5"/>
<text xml:space="preserve" text-anchor="middle" x="423" y="-975.62" font-family="Helvetica,sans-Serif" font-size="10.00">route_workflow</text>
</g>
<!-- normalize_request&#45;&gt;route_workflow -->
<g id="edge3" class="edge">
<title>normalize_request&#45;&gt;route_workflow</title>
<path fill="none" stroke="#334155" d="M423,-1052.08C423,-1052.08 423,-1009.4 423,-1009.4"/>
<polygon fill="#334155" stroke="#334155" points="426.5,-1009.4 423,-999.4 419.5,-1009.4 426.5,-1009.4"/>
</g>
<!-- retrieve_context -->
<g id="node5" class="node">
<title>retrieve_context</title>
<path fill="#f1f5f9" stroke="black" d="M454.88,-897.5C454.88,-897.5 393.12,-897.5 393.12,-897.5 387.12,-897.5 381.12,-891.5 381.12,-885.5 381.12,-885.5 381.12,-873.5 381.12,-873.5 381.12,-867.5 387.12,-861.5 393.12,-861.5 393.12,-861.5 454.88,-861.5 454.88,-861.5 460.88,-861.5 466.88,-867.5 466.88,-873.5 466.88,-873.5 466.88,-885.5 466.88,-885.5 466.88,-891.5 460.88,-897.5 454.88,-897.5"/>
<text xml:space="preserve" text-anchor="middle" x="424" y="-875.62" font-family="Helvetica,sans-Serif" font-size="10.00">retrieve_context</text>
</g>
<!-- route_workflow&#45;&gt;retrieve_context -->
<g id="edge4" class="edge">
<title>route_workflow&#45;&gt;retrieve_context</title>
<path fill="none" stroke="#334155" d="M423,-961.16C423,-961.16 423,-909.24 423,-909.24"/>
<polygon fill="#334155" stroke="#334155" points="426.5,-909.24 423,-899.24 419.5,-909.24 426.5,-909.24"/>
</g>
<!-- vendor_ticket_orchestrator -->
<g id="node6" class="node">
<title>vendor_ticket_orchestrator</title>
<path fill="#faf5ff" stroke="#7c3aed" stroke-width="1.5" d="M462.38,-806.5C462.38,-806.5 385.62,-806.5 385.62,-806.5 379.62,-806.5 373.62,-800.5 373.62,-794.5 373.62,-794.5 373.62,-782.5 373.62,-782.5 373.62,-776.5 379.62,-770.5 385.62,-770.5 385.62,-770.5 462.38,-770.5 462.38,-770.5 468.38,-770.5 474.38,-776.5 474.38,-782.5 474.38,-782.5 474.38,-794.5 474.38,-794.5 474.38,-800.5 468.38,-806.5 462.38,-806.5"/>
<text xml:space="preserve" text-anchor="middle" x="424" y="-790.25" font-family="Helvetica,sans-Serif" font-size="10.00">vendor_ticket_node</text>
<text xml:space="preserve" text-anchor="middle" x="424" y="-779" font-family="Helvetica,sans-Serif" font-size="10.00">Orchestrator</text>
</g>
<!-- retrieve_context&#45;&gt;vendor_ticket_orchestrator -->
<g id="edge5" class="edge">
<title>retrieve_context&#45;&gt;vendor_ticket_orchestrator</title>
<path fill="none" stroke="#334155" d="M424,-861.08C424,-861.08 424,-818.71 424,-818.71"/>
<polygon fill="#334155" stroke="#334155" points="427.5,-818.71 424,-808.71 420.5,-818.71 427.5,-818.71"/>
</g>
<!-- retrieval_strategy -->
<g id="node11" class="node">
<title>retrieval_strategy</title>
<path fill="#e0f2fe" stroke="black" d="M289.38,-897.5C289.38,-897.5 218.62,-897.5 218.62,-897.5 212.62,-897.5 206.62,-891.5 206.62,-885.5 206.62,-885.5 206.62,-873.5 206.62,-873.5 206.62,-867.5 212.62,-861.5 218.62,-861.5 218.62,-861.5 289.38,-861.5 289.38,-861.5 295.38,-861.5 301.38,-867.5 301.38,-873.5 301.38,-873.5 301.38,-885.5 301.38,-885.5 301.38,-891.5 295.38,-897.5 289.38,-897.5"/>
<text xml:space="preserve" text-anchor="middle" x="254" y="-875.62" font-family="Helvetica,sans-Serif" font-size="10.00">Retrieval Strategy</text>
</g>
<!-- retrieve_context&#45;&gt;retrieval_strategy -->
<g id="edge23" class="edge">
<title>retrieve_context&#45;&gt;retrieval_strategy</title>
<path fill="none" stroke="#334155" stroke-dasharray="5,2" d="M380.66,-880C380.66,-880 313.26,-880 313.26,-880"/>
<polygon fill="#334155" stroke="#334155" points="313.26,-876.5 303.26,-880 313.26,-883.5 313.26,-876.5"/>
</g>
<!-- ticket_intent -->
<g id="node14" class="node">
<title>ticket_intent</title>
<path fill="#ffffff" stroke="black" d="M458.62,-697.75C458.62,-697.75 389.38,-697.75 389.38,-697.75 383.38,-697.75 377.38,-691.75 377.38,-685.75 377.38,-685.75 377.38,-673.75 377.38,-673.75 377.38,-667.75 383.38,-661.75 389.38,-661.75 389.38,-661.75 458.62,-661.75 458.62,-661.75 464.62,-661.75 470.62,-667.75 470.62,-673.75 470.62,-673.75 470.62,-685.75 470.62,-685.75 470.62,-691.75 464.62,-697.75 458.62,-697.75"/>
<text xml:space="preserve" text-anchor="middle" x="424" y="-675.88" font-family="Helvetica,sans-Serif" font-size="10.00">TicketIntentAgent</text>
</g>
<!-- vendor_ticket_orchestrator&#45;&gt;ticket_intent -->
<g id="edge25" class="edge">
<title>vendor_ticket_orchestrator&#45;&gt;ticket_intent</title>
<path fill="none" stroke="#334155" stroke-dasharray="5,2" d="M424,-770.05C424,-770.05 424,-709.44 424,-709.44"/>
<polygon fill="#334155" stroke="#334155" points="427.5,-709.44 424,-699.44 420.5,-709.44 427.5,-709.44"/>
<text xml:space="preserve" text-anchor="middle" x="439.38" y="-734.95" font-family="Helvetica,sans-Serif" font-size="9.00">internal</text>
</g>
<!-- validate_output -->
<g id="node7" class="node">
<title>validate_output</title>
<path fill="#ffffff" stroke="black" d="M578,-1270.5C578,-1270.5 520,-1270.5 520,-1270.5 514,-1270.5 508,-1264.5 508,-1258.5 508,-1258.5 508,-1246.5 508,-1246.5 508,-1240.5 514,-1234.5 520,-1234.5 520,-1234.5 578,-1234.5 578,-1234.5 584,-1234.5 590,-1240.5 590,-1246.5 590,-1246.5 590,-1258.5 590,-1258.5 590,-1264.5 584,-1270.5 578,-1270.5"/>
<text xml:space="preserve" text-anchor="middle" x="549" y="-1248.62" font-family="Helvetica,sans-Serif" font-size="10.00">validate_output</text>
</g>
<!-- risk_and_approval -->
<g id="node8" class="node">
<title>risk_and_approval</title>
<path fill="#fef3c7" stroke="black" d="M653,-1179.5C653,-1179.5 541,-1179.5 541,-1179.5 535,-1179.5 529,-1173.5 529,-1167.5 529,-1167.5 529,-1155.5 529,-1155.5 529,-1149.5 535,-1143.5 541,-1143.5 541,-1143.5 653,-1143.5 653,-1143.5 659,-1143.5 665,-1149.5 665,-1155.5 665,-1155.5 665,-1167.5 665,-1167.5 665,-1173.5 659,-1179.5 653,-1179.5"/>
<text xml:space="preserve" text-anchor="middle" x="597" y="-1157.62" font-family="Helvetica,sans-Serif" font-size="10.00">risk_and_approval_decision</text>
</g>
<!-- validate_output&#45;&gt;risk_and_approval -->
<g id="edge32" class="edge">
<title>validate_output&#45;&gt;risk_and_approval</title>
<path fill="none" stroke="#334155" d="M559.5,-1234.08C559.5,-1234.08 559.5,-1191.4 559.5,-1191.4"/>
<polygon fill="#334155" stroke="#334155" points="563,-1191.4 559.5,-1181.4 556,-1191.4 563,-1191.4"/>
</g>
<!-- persist_trace -->
<g id="node9" class="node">
<title>persist_trace</title>
<path fill="#ffffff" stroke="black" d="M659.12,-1088.5C659.12,-1088.5 610.88,-1088.5 610.88,-1088.5 604.88,-1088.5 598.88,-1082.5 598.88,-1076.5 598.88,-1076.5 598.88,-1064.5 598.88,-1064.5 598.88,-1058.5 604.88,-1052.5 610.88,-1052.5 610.88,-1052.5 659.12,-1052.5 659.12,-1052.5 665.12,-1052.5 671.12,-1058.5 671.12,-1064.5 671.12,-1064.5 671.12,-1076.5 671.12,-1076.5 671.12,-1082.5 665.12,-1088.5 659.12,-1088.5"/>
<text xml:space="preserve" text-anchor="middle" x="635" y="-1066.62" font-family="Helvetica,sans-Serif" font-size="10.00">persist_trace</text>
</g>
<!-- risk_and_approval&#45;&gt;persist_trace -->
<g id="edge33" class="edge">
<title>risk_and_approval&#45;&gt;persist_trace</title>
<path fill="none" stroke="#334155" d="M631.94,-1143.08C631.94,-1143.08 631.94,-1100.4 631.94,-1100.4"/>
<polygon fill="#334155" stroke="#334155" points="635.44,-1100.4 631.94,-1090.4 628.44,-1100.4 635.44,-1100.4"/>
</g>
<!-- human_approval_required -->
<g id="node28" class="node">
<title>human_approval_required</title>
<path fill="#fef9c3" stroke="black" d="M1074.66,-1491.32C1074.66,-1491.32 1009.34,-1468.68 1009.34,-1468.68 1003.67,-1466.71 1003.67,-1462.79 1009.34,-1460.82 1009.34,-1460.82 1074.66,-1438.18 1074.66,-1438.18 1080.33,-1436.21 1091.67,-1436.21 1097.34,-1438.18 1097.34,-1438.18 1162.66,-1460.82 1162.66,-1460.82 1168.33,-1462.79 1168.33,-1466.71 1162.66,-1468.68 1162.66,-1468.68 1097.34,-1491.32 1097.34,-1491.32 1091.67,-1493.29 1080.33,-1493.29 1074.66,-1491.32"/>
<text xml:space="preserve" text-anchor="middle" x="1086" y="-1466.5" font-family="Helvetica,sans-Serif" font-size="10.00">Human Approval</text>
<text xml:space="preserve" text-anchor="middle" x="1086" y="-1455.25" font-family="Helvetica,sans-Serif" font-size="10.00">Required?</text>
</g>
<!-- persist_trace&#45;&gt;human_approval_required -->
<g id="edge34" class="edge">
<title>persist_trace&#45;&gt;human_approval_required</title>
<path fill="none" stroke="#334155" d="M671.39,-1071C775.34,-1071 1066.19,-1071 1066.19,-1071 1066.19,-1071 1066.19,-1429.2 1066.19,-1429.2"/>
<polygon fill="#334155" stroke="#334155" points="1062.69,-1429.2 1066.19,-1439.2 1069.69,-1429.2 1062.69,-1429.2"/>
</g>
<!-- end_node -->
<g id="node10" class="node">
<title>end_node</title>
<ellipse fill="#dcfce7" stroke="black" cx="657" cy="-1252.5" rx="27" ry="18"/>
<text xml:space="preserve" text-anchor="middle" x="657" y="-1248.62" font-family="Helvetica,sans-Serif" font-size="10.00">End</text>
</g>
<!-- vectorstore -->
<g id="node12" class="node">
<title>vectorstore</title>
<path fill="#bae6fd" stroke="black" d="M331.38,-803.23C331.38,-805.03 303.42,-806.5 269,-806.5 234.58,-806.5 206.62,-805.03 206.62,-803.23 206.62,-803.23 206.62,-773.77 206.62,-773.77 206.62,-771.97 234.58,-770.5 269,-770.5 303.42,-770.5 331.38,-771.97 331.38,-773.77 331.38,-773.77 331.38,-803.23 331.38,-803.23"/>
<path fill="none" stroke="black" d="M331.38,-803.23C331.38,-801.42 303.42,-799.95 269,-799.95 234.58,-799.95 206.62,-801.42 206.62,-803.23"/>
<text xml:space="preserve" text-anchor="middle" x="269" y="-784.62" font-family="Helvetica,sans-Serif" font-size="10.00">VectorStore / RAG Docs</text>
</g>
<!-- retrieval_strategy&#45;&gt;vectorstore -->
<g id="edge6" class="edge">
<title>retrieval_strategy&#45;&gt;vectorstore</title>
<path fill="none" stroke="#334155" d="M254,-861.08C254,-861.08 254,-818.4 254,-818.4"/>
<polygon fill="#334155" stroke="#334155" points="257.5,-818.4 254,-808.4 250.5,-818.4 257.5,-818.4"/>
</g>
<!-- rag_policy_context -->
<g id="node13" class="node">
<title>rag_policy_context</title>
<polygon fill="#e0f2fe" stroke="black" points="325.62,-697.75 220.38,-697.75 220.38,-661.75 331.62,-661.75 331.62,-691.75 325.62,-697.75"/>
<polyline fill="none" stroke="black" points="325.62,-697.75 325.62,-691.75"/>
<polyline fill="none" stroke="black" points="331.62,-691.75 325.62,-691.75"/>
<text xml:space="preserve" text-anchor="middle" x="276" y="-675.88" font-family="Helvetica,sans-Serif" font-size="10.00">RAG / Policy Context</text>
</g>
<!-- vectorstore&#45;&gt;rag_policy_context -->
<g id="edge7" class="edge">
<title>vectorstore&#45;&gt;rag_policy_context</title>
<path fill="none" stroke="#334155" d="M275.88,-770.05C275.88,-770.05 275.88,-709.44 275.88,-709.44"/>
<polygon fill="#334155" stroke="#334155" points="279.38,-709.44 275.88,-699.44 272.38,-709.44 279.38,-709.44"/>
</g>
<!-- policy_grounding -->
<g id="node15" class="node">
<title>policy_grounding</title>
<path fill="#ffffff" stroke="black" d="M468.38,-598C468.38,-598 379.62,-598 379.62,-598 373.62,-598 367.62,-592 367.62,-586 367.62,-586 367.62,-574 367.62,-574 367.62,-568 373.62,-562 379.62,-562 379.62,-562 468.38,-562 468.38,-562 474.38,-562 480.38,-568 480.38,-574 480.38,-574 480.38,-586 480.38,-586 480.38,-592 474.38,-598 468.38,-598"/>
<text xml:space="preserve" text-anchor="middle" x="424" y="-576.12" font-family="Helvetica,sans-Serif" font-size="10.00">PolicyGroundingAgent</text>
</g>
<!-- rag_policy_context&#45;&gt;policy_grounding -->
<g id="edge24" class="edge">
<title>rag_policy_context&#45;&gt;policy_grounding</title>
<path fill="none" stroke="#334155" stroke-dasharray="5,2" d="M276,-661.45C276,-632.66 276,-580 276,-580 276,-580 355.69,-580 355.69,-580"/>
<polygon fill="#334155" stroke="#334155" points="355.69,-583.5 365.69,-580 355.69,-576.5 355.69,-583.5"/>
<text xml:space="preserve" text-anchor="middle" x="347.62" y="-626.2" font-family="Helvetica,sans-Serif" font-size="9.00">context</text>
</g>
<!-- ticket_intent&#45;&gt;policy_grounding -->
<g id="edge8" class="edge">
<title>ticket_intent&#45;&gt;policy_grounding</title>
<path fill="none" stroke="#334155" d="M424,-661.45C424,-661.45 424,-609.69 424,-609.69"/>
<polygon fill="#334155" stroke="#334155" points="427.5,-609.69 424,-599.69 420.5,-609.69 427.5,-609.69"/>
</g>
<!-- drafting -->
<g id="node16" class="node">
<title>drafting</title>
<path fill="#ffffff" stroke="black" d="M451,-507C451,-507 399,-507 399,-507 393,-507 387,-501 387,-495 387,-495 387,-483 387,-483 387,-477 393,-471 399,-471 399,-471 451,-471 451,-471 457,-471 463,-477 463,-483 463,-483 463,-495 463,-495 463,-501 457,-507 451,-507"/>
<text xml:space="preserve" text-anchor="middle" x="425" y="-485.12" font-family="Helvetica,sans-Serif" font-size="10.00">DraftingAgent</text>
</g>
<!-- policy_grounding&#45;&gt;drafting -->
<g id="edge9" class="edge">
<title>policy_grounding&#45;&gt;drafting</title>
<path fill="none" stroke="#334155" d="M425,-561.58C425,-561.58 425,-518.9 425,-518.9"/>
<polygon fill="#334155" stroke="#334155" points="428.5,-518.9 425,-508.9 421.5,-518.9 428.5,-518.9"/>
</g>
<!-- qa_check -->
<g id="node17" class="node">
<title>qa_check</title>
<path fill="#ffffff" stroke="black" d="M456.12,-416C456.12,-416 395.88,-416 395.88,-416 389.88,-416 383.88,-410 383.88,-404 383.88,-404 383.88,-392 383.88,-392 383.88,-386 389.88,-380 395.88,-380 395.88,-380 456.12,-380 456.12,-380 462.12,-380 468.12,-386 468.12,-392 468.12,-392 468.12,-404 468.12,-404 468.12,-410 462.12,-416 456.12,-416"/>
<text xml:space="preserve" text-anchor="middle" x="426" y="-394.12" font-family="Helvetica,sans-Serif" font-size="10.00">QACheckAgent</text>
</g>
<!-- drafting&#45;&gt;qa_check -->
<g id="edge10" class="edge">
<title>drafting&#45;&gt;qa_check</title>
<path fill="none" stroke="#334155" d="M425,-470.58C425,-470.58 425,-427.9 425,-427.9"/>
<polygon fill="#334155" stroke="#334155" points="428.5,-427.9 425,-417.9 421.5,-427.9 428.5,-427.9"/>
</g>
<!-- supervisor -->
<g id="node18" class="node">
<title>supervisor</title>
<path fill="#ffffff" stroke="black" d="M473.62,-325C473.62,-325 380.38,-325 380.38,-325 374.38,-325 368.38,-319 368.38,-313 368.38,-313 368.38,-301 368.38,-301 368.38,-295 374.38,-289 380.38,-289 380.38,-289 473.62,-289 473.62,-289 479.62,-289 485.62,-295 485.62,-301 485.62,-301 485.62,-313 485.62,-313 485.62,-319 479.62,-325 473.62,-325"/>
<text xml:space="preserve" text-anchor="middle" x="427" y="-303.12" font-family="Helvetica,sans-Serif" font-size="10.00">SupervisorRouterAgent</text>
</g>
<!-- qa_check&#45;&gt;supervisor -->
<g id="edge11" class="edge">
<title>qa_check&#45;&gt;supervisor</title>
<path fill="none" stroke="#334155" d="M426,-379.58C426,-379.58 426,-336.9 426,-336.9"/>
<polygon fill="#334155" stroke="#334155" points="429.5,-336.9 426,-326.9 422.5,-336.9 429.5,-336.9"/>
</g>
<!-- risk_review -->
<g id="node19" class="node">
<title>risk_review</title>
<path fill="#ffffff" stroke="black" d="M468.38,-234C468.38,-234 397.62,-234 397.62,-234 391.62,-234 385.62,-228 385.62,-222 385.62,-222 385.62,-210 385.62,-210 385.62,-204 391.62,-198 397.62,-198 397.62,-198 468.38,-198 468.38,-198 474.38,-198 480.38,-204 480.38,-210 480.38,-210 480.38,-222 480.38,-222 480.38,-228 474.38,-234 468.38,-234"/>
<text xml:space="preserve" text-anchor="middle" x="433" y="-212.12" font-family="Helvetica,sans-Serif" font-size="10.00">RiskReviewAgent</text>
</g>
<!-- supervisor&#45;&gt;risk_review -->
<g id="edge12" class="edge">
<title>supervisor&#45;&gt;risk_review</title>
<path fill="none" stroke="#334155" d="M433,-288.58C433,-288.58 433,-245.9 433,-245.9"/>
<polygon fill="#334155" stroke="#334155" points="436.5,-245.9 433,-235.9 429.5,-245.9 436.5,-245.9"/>
</g>
<!-- evidence -->
<g id="node20" class="node">
<title>evidence</title>
<path fill="#ffffff" stroke="black" d="M467.25,-143C467.25,-143 404.75,-143 404.75,-143 398.75,-143 392.75,-137 392.75,-131 392.75,-131 392.75,-119 392.75,-119 392.75,-113 398.75,-107 404.75,-107 404.75,-107 467.25,-107 467.25,-107 473.25,-107 479.25,-113 479.25,-119 479.25,-119 479.25,-131 479.25,-131 479.25,-137 473.25,-143 467.25,-143"/>
<text xml:space="preserve" text-anchor="middle" x="436" y="-121.12" font-family="Helvetica,sans-Serif" font-size="10.00">EvidenceBuilder</text>
</g>
<!-- risk_review&#45;&gt;evidence -->
<g id="edge13" class="edge">
<title>risk_review&#45;&gt;evidence</title>
<path fill="none" stroke="#334155" d="M436,-197.58C436,-197.58 436,-154.9 436,-154.9"/>
<polygon fill="#334155" stroke="#334155" points="439.5,-154.9 436,-144.9 432.5,-154.9 439.5,-154.9"/>
</g>
<!-- specialist_output -->
<g id="node21" class="node">
<title>specialist_output</title>
<polygon fill="#f5f3ff" stroke="black" points="476.75,-52 393.25,-52 393.25,-16 482.75,-16 482.75,-46 476.75,-52"/>
<polyline fill="none" stroke="black" points="476.75,-52 476.75,-46"/>
<polyline fill="none" stroke="black" points="482.75,-46 476.75,-46"/>
<text xml:space="preserve" text-anchor="middle" x="438" y="-30.12" font-family="Helvetica,sans-Serif" font-size="10.00">specialist_output</text>
</g>
<!-- evidence&#45;&gt;specialist_output -->
<g id="edge14" class="edge">
<title>evidence&#45;&gt;specialist_output</title>
<path fill="none" stroke="#334155" d="M436.25,-106.58C436.25,-106.58 436.25,-63.9 436.25,-63.9"/>
<polygon fill="#334155" stroke="#334155" points="439.75,-63.9 436.25,-53.9 432.75,-63.9 439.75,-63.9"/>
</g>
<!-- route_decision -->
<g id="node22" class="node">
<title>route_decision</title>
<path fill="#fef9c3" stroke="black" d="M417.31,-1492.55C417.31,-1492.55 308.44,-1467.45 308.44,-1467.45 302.6,-1466.1 302.6,-1463.4 308.44,-1462.05 308.44,-1462.05 417.31,-1436.95 417.31,-1436.95 423.15,-1435.6 434.85,-1435.6 440.69,-1436.95 440.69,-1436.95 549.56,-1462.05 549.56,-1462.05 555.4,-1463.4 555.4,-1466.1 549.56,-1467.45 549.56,-1467.45 440.69,-1492.55 440.69,-1492.55 434.85,-1493.9 423.15,-1493.9 417.31,-1492.55"/>
<text xml:space="preserve" text-anchor="middle" x="429" y="-1466.5" font-family="Helvetica,sans-Serif" font-size="10.00">Route Decision</text>
<text xml:space="preserve" text-anchor="middle" x="429" y="-1455.25" font-family="Helvetica,sans-Serif" font-size="10.00">(route_after_vendor_ticket)</text>
</g>
<!-- specialist_output&#45;&gt;route_decision -->
<g id="edge26" class="edge">
<title>specialist_output&#45;&gt;route_decision</title>
<path fill="none" stroke="#334155" d="M482.98,-34C556.97,-34 696.25,-34 696.25,-34 696.25,-34 696.25,-1441 696.25,-1441 696.25,-1441 471.96,-1441 471.96,-1441"/>
<polygon fill="#334155" stroke="#334155" points="471.96,-1437.5 461.96,-1441 471.96,-1444.5 471.96,-1437.5"/>
</g>
<!-- qa_attention_review -->
<g id="node23" class="node">
<title>qa_attention_review</title>
<path fill="#fef9c3" stroke="black" d="M267.75,-1370.5C267.75,-1370.5 184.25,-1370.5 184.25,-1370.5 178.25,-1370.5 172.25,-1364.5 172.25,-1358.5 172.25,-1358.5 172.25,-1346.5 172.25,-1346.5 172.25,-1340.5 178.25,-1334.5 184.25,-1334.5 184.25,-1334.5 267.75,-1334.5 267.75,-1334.5 273.75,-1334.5 279.75,-1340.5 279.75,-1346.5 279.75,-1346.5 279.75,-1358.5 279.75,-1358.5 279.75,-1364.5 273.75,-1370.5 267.75,-1370.5"/>
<text xml:space="preserve" text-anchor="middle" x="226" y="-1354.25" font-family="Helvetica,sans-Serif" font-size="10.00">QA Attention Review</text>
<text xml:space="preserve" text-anchor="middle" x="226" y="-1343" font-family="Helvetica,sans-Serif" font-size="10.00">(surfaces QA issues)</text>
</g>
<!-- route_decision&#45;&gt;qa_attention_review -->
<g id="edge15" class="edge">
<title>route_decision&#45;&gt;qa_attention_review</title>
<path fill="none" stroke="#334155" stroke-dasharray="5,2" d="M310.69,-1461.03C310.69,-1441.64 310.69,-1353 310.69,-1353 310.69,-1353 291.63,-1353 291.63,-1353"/>
<polygon fill="#334155" stroke="#334155" points="291.63,-1349.5 281.63,-1353 291.63,-1356.5 291.63,-1349.5"/>
</g>
<!-- escalation_review -->
<g id="node24" class="node">
<title>escalation_review</title>
<path fill="#fef9c3" stroke="black" d="M402,-1370.5C402,-1370.5 332,-1370.5 332,-1370.5 326,-1370.5 320,-1364.5 320,-1358.5 320,-1358.5 320,-1346.5 320,-1346.5 320,-1340.5 326,-1334.5 332,-1334.5 332,-1334.5 402,-1334.5 402,-1334.5 408,-1334.5 414,-1340.5 414,-1346.5 414,-1346.5 414,-1358.5 414,-1358.5 414,-1364.5 408,-1370.5 402,-1370.5"/>
<text xml:space="preserve" text-anchor="middle" x="367" y="-1348.62" font-family="Helvetica,sans-Serif" font-size="10.00">escalation_review</text>
</g>
<!-- route_decision&#45;&gt;escalation_review -->
<g id="edge16" class="edge">
<title>route_decision&#45;&gt;escalation_review</title>
<path fill="none" stroke="#334155" stroke-dasharray="5,2" d="M367,-1448.19C367,-1448.19 367,-1382.13 367,-1382.13"/>
<polygon fill="#334155" stroke="#334155" points="370.5,-1382.13 367,-1372.13 363.5,-1382.13 370.5,-1382.13"/>
</g>
<!-- billing_review -->
<g id="node25" class="node">
<title>billing_review</title>
<path fill="#fef9c3" stroke="black" d="M516.25,-1370.5C516.25,-1370.5 465.75,-1370.5 465.75,-1370.5 459.75,-1370.5 453.75,-1364.5 453.75,-1358.5 453.75,-1358.5 453.75,-1346.5 453.75,-1346.5 453.75,-1340.5 459.75,-1334.5 465.75,-1334.5 465.75,-1334.5 516.25,-1334.5 516.25,-1334.5 522.25,-1334.5 528.25,-1340.5 528.25,-1346.5 528.25,-1346.5 528.25,-1358.5 528.25,-1358.5 528.25,-1364.5 522.25,-1370.5 516.25,-1370.5"/>
<text xml:space="preserve" text-anchor="middle" x="491" y="-1348.62" font-family="Helvetica,sans-Serif" font-size="10.00">billing_review</text>
</g>
<!-- route_decision&#45;&gt;billing_review -->
<g id="edge17" class="edge">
<title>route_decision&#45;&gt;billing_review</title>
<path fill="none" stroke="#334155" d="M491,-1448.19C491,-1448.19 491,-1382.13 491,-1382.13"/>
<polygon fill="#334155" stroke="#334155" points="494.5,-1382.13 491,-1372.13 487.5,-1382.13 494.5,-1382.13"/>
</g>
<!-- style_guidance_review -->
<g id="node26" class="node">
<title>style_guidance_review</title>
<path fill="#fef9c3" stroke="black" d="M671.5,-1370.5C671.5,-1370.5 580.5,-1370.5 580.5,-1370.5 574.5,-1370.5 568.5,-1364.5 568.5,-1358.5 568.5,-1358.5 568.5,-1346.5 568.5,-1346.5 568.5,-1340.5 574.5,-1334.5 580.5,-1334.5 580.5,-1334.5 671.5,-1334.5 671.5,-1334.5 677.5,-1334.5 683.5,-1340.5 683.5,-1346.5 683.5,-1346.5 683.5,-1358.5 683.5,-1358.5 683.5,-1364.5 677.5,-1370.5 671.5,-1370.5"/>
<text xml:space="preserve" text-anchor="middle" x="626" y="-1348.62" font-family="Helvetica,sans-Serif" font-size="10.00">style_guidance_review</text>
</g>
<!-- route_decision&#45;&gt;style_guidance_review -->
<g id="edge18" class="edge">
<title>route_decision&#45;&gt;style_guidance_review</title>
<path fill="none" stroke="#334155" stroke-dasharray="5,2" d="M544.75,-1460.51C544.75,-1440.09 544.75,-1353 544.75,-1353 544.75,-1353 556.74,-1353 556.74,-1353"/>
<polygon fill="#334155" stroke="#334155" points="556.74,-1356.5 566.74,-1353 556.74,-1349.5 556.74,-1356.5"/>
</g>
<!-- general_vendor_review -->
<g id="node27" class="node">
<title>general_vendor_review</title>
<path fill="#fef9c3" stroke="black" d="M119.88,-1370.5C119.88,-1370.5 28.12,-1370.5 28.12,-1370.5 22.12,-1370.5 16.12,-1364.5 16.12,-1358.5 16.12,-1358.5 16.12,-1346.5 16.12,-1346.5 16.12,-1340.5 22.12,-1334.5 28.12,-1334.5 28.12,-1334.5 119.88,-1334.5 119.88,-1334.5 125.88,-1334.5 131.88,-1340.5 131.88,-1346.5 131.88,-1346.5 131.88,-1358.5 131.88,-1358.5 131.88,-1364.5 125.88,-1370.5 119.88,-1370.5"/>
<text xml:space="preserve" text-anchor="middle" x="74" y="-1348.62" font-family="Helvetica,sans-Serif" font-size="10.00">general_vendor_review</text>
</g>
<!-- route_decision&#45;&gt;general_vendor_review -->
<g id="edge19" class="edge">
<title>route_decision&#45;&gt;general_vendor_review</title>
<path fill="none" stroke="#334155" stroke-dasharray="5,2" d="M295.8,-1465C195.07,-1465 74,-1465 74,-1465 74,-1465 74,-1382.34 74,-1382.34"/>
<polygon fill="#334155" stroke="#334155" points="77.5,-1382.34 74,-1372.34 70.5,-1382.34 77.5,-1382.34"/>
</g>
<!-- qa_attention_review&#45;&gt;validate_output -->
<g id="edge27" class="edge">
<title>qa_attention_review&#45;&gt;validate_output</title>
<path fill="none" stroke="#334155" d="M243.19,-1334.07C243.19,-1319.99 243.19,-1303 243.19,-1303 243.19,-1303 516.1,-1303 516.1,-1303 516.1,-1303 516.1,-1282.25 516.1,-1282.25"/>
<polygon fill="#334155" stroke="#334155" points="519.6,-1282.25 516.1,-1272.25 512.6,-1282.25 519.6,-1282.25"/>
</g>
<!-- escalation_review&#45;&gt;validate_output -->
<g id="edge28" class="edge">
<title>escalation_review&#45;&gt;validate_output</title>
<path fill="none" stroke="#334155" d="M386.86,-1334.18C386.86,-1326.36 386.86,-1319 386.86,-1319 386.86,-1319 520.15,-1319 520.15,-1319 520.15,-1319 520.15,-1282.18 520.15,-1282.18"/>
<polygon fill="#334155" stroke="#334155" points="523.65,-1282.18 520.15,-1272.18 516.65,-1282.18 523.65,-1282.18"/>
</g>
<!-- billing_review&#45;&gt;validate_output -->
<g id="edge29" class="edge">
<title>billing_review&#45;&gt;validate_output</title>
<path fill="none" stroke="#334155" d="M524.2,-1334.16C524.2,-1334.16 524.2,-1282.24 524.2,-1282.24"/>
<polygon fill="#334155" stroke="#334155" points="527.7,-1282.24 524.2,-1272.24 520.7,-1282.24 527.7,-1282.24"/>
</g>
<!-- style_guidance_review&#45;&gt;validate_output -->
<g id="edge30" class="edge">
<title>style_guidance_review&#45;&gt;validate_output</title>
<path fill="none" stroke="#334155" d="M579.25,-1334.16C579.25,-1334.16 579.25,-1282.24 579.25,-1282.24"/>
<polygon fill="#334155" stroke="#334155" points="582.75,-1282.24 579.25,-1272.24 575.75,-1282.24 582.75,-1282.24"/>
</g>
<!-- general_vendor_review&#45;&gt;validate_output -->
<g id="edge31" class="edge">
<title>general_vendor_review&#45;&gt;validate_output</title>
<path fill="none" stroke="#334155" d="M74,-1334.25C74,-1314.87 74,-1287 74,-1287 74,-1287 512.05,-1287 512.05,-1287 512.05,-1287 512.05,-1282.48 512.05,-1282.48"/>
<polygon fill="#334155" stroke="#334155" points="515.55,-1282.48 512.05,-1272.48 508.55,-1282.48 515.55,-1282.48"/>
</g>
<!-- human_approval -->
<g id="node29" class="node">
<title>human_approval</title>
<path fill="#ffedd5" stroke="#ea580c" stroke-width="1.5" d="M1034,-1370.5C1034,-1370.5 970,-1370.5 970,-1370.5 964,-1370.5 958,-1364.5 958,-1358.5 958,-1358.5 958,-1346.5 958,-1346.5 958,-1340.5 964,-1334.5 970,-1334.5 970,-1334.5 1034,-1334.5 1034,-1334.5 1040,-1334.5 1046,-1340.5 1046,-1346.5 1046,-1346.5 1046,-1358.5 1046,-1358.5 1046,-1364.5 1040,-1370.5 1034,-1370.5"/>
<text xml:space="preserve" text-anchor="middle" x="1002" y="-1348.62" font-family="Helvetica,sans-Serif" font-size="10.00">Human Approval</text>
</g>
<!-- human_approval_required&#45;&gt;human_approval -->
<g id="edge35" class="edge">
<title>human_approval_required&#45;&gt;human_approval</title>
<path fill="none" stroke="#334155" d="M1022,-1455.94C1022,-1455.94 1022,-1382.68 1022,-1382.68"/>
<polygon fill="#334155" stroke="#334155" points="1025.5,-1382.68 1022,-1372.68 1018.5,-1382.68 1025.5,-1382.68"/>
<text xml:space="preserve" text-anchor="middle" x="1044.12" y="-1398.7" font-family="Helvetica,sans-Serif" font-size="9.00">yes</text>
</g>
<!-- final_response -->
<g id="node30" class="node">
<title>final_response</title>
<path fill="none" stroke="black" stroke-dasharray="5,2" d="M1161.62,-1370.5C1161.62,-1370.5 1098.38,-1370.5 1098.38,-1370.5 1092.38,-1370.5 1086.38,-1364.5 1086.38,-1358.5 1086.38,-1358.5 1086.38,-1346.5 1086.38,-1346.5 1086.38,-1340.5 1092.38,-1334.5 1098.38,-1334.5 1098.38,-1334.5 1161.62,-1334.5 1161.62,-1334.5 1167.62,-1334.5 1173.62,-1340.5 1173.62,-1346.5 1173.62,-1346.5 1173.62,-1358.5 1173.62,-1358.5 1173.62,-1364.5 1167.62,-1370.5 1161.62,-1370.5"/>
<text xml:space="preserve" text-anchor="middle" x="1130" y="-1354.25" font-family="Helvetica,sans-Serif" font-size="10.00">Final Response</text>
<text xml:space="preserve" text-anchor="middle" x="1130" y="-1343" font-family="Helvetica,sans-Serif" font-size="10.00">(future / bypass)</text>
</g>
<!-- human_approval_required&#45;&gt;final_response -->
<g id="edge36" class="edge">
<title>human_approval_required&#45;&gt;final_response</title>
<path fill="none" stroke="#334155" stroke-dasharray="5,2" d="M1130,-1449.14C1130,-1449.14 1130,-1382.47 1130,-1382.47"/>
<polygon fill="#334155" stroke="#334155" points="1133.5,-1382.47 1130,-1372.47 1126.5,-1382.47 1133.5,-1382.47"/>
<text xml:space="preserve" text-anchor="middle" x="1113.25" y="-1398.7" font-family="Helvetica,sans-Serif" font-size="9.00">no</text>
</g>
<!-- human_approval&#45;&gt;end_node -->
<g id="edge37" class="edge">
<title>human_approval&#45;&gt;end_node</title>
<path fill="none" stroke="#334155" d="M1002,-1334.03C1002,-1306.78 1002,-1259 1002,-1259 1002,-1259 694.16,-1259 694.16,-1259"/>
<polygon fill="#334155" stroke="#334155" points="694.16,-1255.5 684.16,-1259 694.16,-1262.5 694.16,-1255.5"/>
</g>
<!-- operator_review -->
<g id="node31" class="node">
<title>operator_review</title>
<path fill="#ccfbf1" stroke="black" d="M856.75,-1811C856.75,-1811 761.25,-1811 761.25,-1811 755.25,-1811 749.25,-1805 749.25,-1799 749.25,-1799 749.25,-1787 749.25,-1787 749.25,-1781 755.25,-1775 761.25,-1775 761.25,-1775 856.75,-1775 856.75,-1775 862.75,-1775 868.75,-1781 868.75,-1787 868.75,-1787 868.75,-1799 868.75,-1799 868.75,-1805 862.75,-1811 856.75,-1811"/>
<text xml:space="preserve" text-anchor="middle" x="809" y="-1794.75" font-family="Helvetica,sans-Serif" font-size="10.00">POST /review&#45;actions</text>
<text xml:space="preserve" text-anchor="middle" x="809" y="-1783.5" font-family="Helvetica,sans-Serif" font-size="10.00">Operator Review Action</text>
</g>
<!-- human_approval&#45;&gt;operator_review -->
<g id="edge39" class="edge">
<title>human_approval&#45;&gt;operator_review</title>
<path fill="none" stroke="#334155" stroke-dasharray="5,2" d="M984.67,-1371.15C984.67,-1454.99 984.67,-1793 984.67,-1793 984.67,-1793 880.48,-1793 880.48,-1793"/>
<polygon fill="#334155" stroke="#334155" points="880.48,-1789.5 870.48,-1793 880.48,-1796.5 880.48,-1789.5"/>
<text xml:space="preserve" text-anchor="middle" x="970.75" y="-1573.58" font-family="Helvetica,sans-Serif" font-size="9.00">operator action</text>
</g>
<!-- final_response&#45;&gt;end_node -->
<g id="edge38" class="edge">
<title>final_response&#45;&gt;end_node</title>
<path fill="none" stroke="#334155" stroke-dasharray="5,2" d="M1130,-1334.12C1130,-1303.9 1130,-1247 1130,-1247 1130,-1247 694.62,-1247 694.62,-1247"/>
<polygon fill="#334155" stroke="#334155" points="694.62,-1243.5 684.62,-1247 694.62,-1250.5 694.62,-1243.5"/>
</g>
<!-- redraft_execute_gate -->
<g id="node32" class="node">
<title>redraft_execute_gate</title>
<path fill="#fef9c3" stroke="black" d="M783.68,-1716.01C783.68,-1716.01 719.82,-1693.49 719.82,-1693.49 714.16,-1691.5 714.16,-1687.5 719.82,-1685.51 719.82,-1685.51 783.68,-1662.99 783.68,-1662.99 789.34,-1661 800.66,-1661 806.32,-1662.99 806.32,-1662.99 870.18,-1685.51 870.18,-1685.51 875.84,-1687.5 875.84,-1691.5 870.18,-1693.49 870.18,-1693.49 806.32,-1716.01 806.32,-1716.01 800.66,-1718 789.34,-1718 783.68,-1716.01"/>
<text xml:space="preserve" text-anchor="middle" x="795" y="-1691.25" font-family="Helvetica,sans-Serif" font-size="10.00">execute=true</text>
<text xml:space="preserve" text-anchor="middle" x="795" y="-1680" font-family="Helvetica,sans-Serif" font-size="10.00">request_redraft?</text>
</g>
<!-- operator_review&#45;&gt;redraft_execute_gate -->
<g id="edge20" class="edge">
<title>operator_review&#45;&gt;redraft_execute_gate</title>
<path fill="none" stroke="#334155" d="M809,-1774.97C809,-1774.97 809,-1726.98 809,-1726.98"/>
<polygon fill="#334155" stroke="#334155" points="812.5,-1726.98 809,-1716.98 805.5,-1726.98 812.5,-1726.98"/>
</g>
<!-- controlled_redraft -->
<g id="node33" class="node">
<title>controlled_redraft</title>
<path fill="#99f6e4" stroke="black" d="M842.75,-1595.25C842.75,-1595.25 771.25,-1595.25 771.25,-1595.25 765.25,-1595.25 759.25,-1589.25 759.25,-1583.25 759.25,-1583.25 759.25,-1571.25 759.25,-1571.25 759.25,-1565.25 765.25,-1559.25 771.25,-1559.25 771.25,-1559.25 842.75,-1559.25 842.75,-1559.25 848.75,-1559.25 854.75,-1565.25 854.75,-1571.25 854.75,-1571.25 854.75,-1583.25 854.75,-1583.25 854.75,-1589.25 848.75,-1595.25 842.75,-1595.25"/>
<text xml:space="preserve" text-anchor="middle" x="807" y="-1579" font-family="Helvetica,sans-Serif" font-size="10.00">Controlled Redraft</text>
<text xml:space="preserve" text-anchor="middle" x="807" y="-1567.75" font-family="Helvetica,sans-Serif" font-size="10.00">Execution</text>
</g>
<!-- redraft_execute_gate&#45;&gt;controlled_redraft -->
<g id="edge21" class="edge">
<title>redraft_execute_gate&#45;&gt;controlled_redraft</title>
<path fill="none" stroke="#334155" d="M807,-1662.9C807,-1662.9 807,-1607.11 807,-1607.11"/>
<polygon fill="#334155" stroke="#334155" points="810.5,-1607.11 807,-1597.11 803.5,-1607.11 810.5,-1607.11"/>
<text xml:space="preserve" text-anchor="middle" x="804.12" y="-1623.45" font-family="Helvetica,sans-Serif" font-size="9.00">yes</text>
</g>
<!-- draft_pending_approval -->
<g id="node34" class="node">
<title>draft_pending_approval</title>
<path fill="#fef3c7" stroke="#ea580c" stroke-width="1.5" d="M862.12,-1482.75C862.12,-1482.75 759.88,-1482.75 759.88,-1482.75 753.88,-1482.75 747.88,-1476.75 747.88,-1470.75 747.88,-1470.75 747.88,-1458.75 747.88,-1458.75 747.88,-1452.75 753.88,-1446.75 759.88,-1446.75 759.88,-1446.75 862.12,-1446.75 862.12,-1446.75 868.12,-1446.75 874.12,-1452.75 874.12,-1458.75 874.12,-1458.75 874.12,-1470.75 874.12,-1470.75 874.12,-1476.75 868.12,-1482.75 862.12,-1482.75"/>
<text xml:space="preserve" text-anchor="middle" x="811" y="-1466.5" font-family="Helvetica,sans-Serif" font-size="10.00">New Draft</text>
<text xml:space="preserve" text-anchor="middle" x="811" y="-1455.25" font-family="Helvetica,sans-Serif" font-size="10.00">Pending Human Approval</text>
</g>
<!-- controlled_redraft&#45;&gt;draft_pending_approval -->
<g id="edge22" class="edge">
<title>controlled_redraft&#45;&gt;draft_pending_approval</title>
<path fill="none" stroke="#334155" d="M807,-1558.92C807,-1558.92 807,-1494.96 807,-1494.96"/>
<polygon fill="#334155" stroke="#334155" points="810.5,-1494.96 807,-1484.96 803.5,-1494.96 810.5,-1494.96"/>
</g>
<!-- draft_pending_approval&#45;&gt;human_approval -->
<g id="edge40" class="edge">
<title>draft_pending_approval&#45;&gt;human_approval</title>
<path fill="none" stroke="#334155" stroke-dasharray="5,2" d="M874.83,-1465C919.54,-1465 971.33,-1465 971.33,-1465 971.33,-1465 971.33,-1382.59 971.33,-1382.59"/>
<polygon fill="#334155" stroke="#334155" points="974.83,-1382.59 971.33,-1372.59 967.83,-1382.59 974.83,-1382.59"/>
<text xml:space="preserve" text-anchor="middle" x="869.5" y="-1398.7" font-family="Helvetica,sans-Serif" font-size="9.00">re&#45;approve</text>
</g>
</g>
</svg>
