<?xml version="1.0" encoding="UTF-8" standalone="no"?>
<!DOCTYPE svg PUBLIC "-//W3C//DTD SVG 1.1//EN"
 "http://www.w3.org/Graphics/SVG/1.1/DTD/svg11.dtd">
<!-- Generated by graphviz version 14.1.5 (20260411.2331)
 -->
<!-- Title: vendor_ticket_agent_workflow Pages: 1 -->
<svg width="1307pt" height="1215pt"
 viewBox="0.00 0.00 1307.00 1215.00" xmlns="http://www.w3.org/2000/svg" xmlns:xlink="http://www.w3.org/1999/xlink">
<g id="graph0" class="graph" transform="scale(1 1) rotate(0) translate(4 1210.87)">
<title>vendor_ticket_agent_workflow</title>
<polygon fill="#f8fafc" stroke="none" points="-4,4 -4,-1210.87 1303,-1210.87 1303,4 -4,4"/>
<text xml:space="preserve" text-anchor="middle" x="649.5" y="-1192.42" font-family="Helvetica,sans-Serif" font-size="11.00">Inchand AI — Vendor Ticket Agent Workflow</text>
<g id="clust1" class="cluster">
<title>cluster_runtime</title>
<path fill="#ffffff" stroke="#94a3b8" d="M338,-195.62C338,-195.62 654,-195.62 654,-195.62 660,-195.62 666,-201.62 666,-207.62 666,-207.62 666,-674.37 666,-674.37 666,-680.37 660,-686.37 654,-686.37 654,-686.37 338,-686.37 338,-686.37 332,-686.37 326,-680.37 326,-674.37 326,-674.37 326,-207.62 326,-207.62 326,-201.62 332,-195.62 338,-195.62"/>
<text xml:space="preserve" text-anchor="middle" x="496" y="-671.92" font-family="Helvetica,sans-Serif" font-size="11.00">Runtime — LangGraph</text>
</g>
<g id="clust2" class="cluster">
<title>cluster_retrieval</title>
<path fill="#f0f9ff" stroke="#0369a1" d="M20,-8C20,-8 142,-8 142,-8 148,-8 154,-14 154,-20 154,-20 154,-255.62 154,-255.62 154,-261.62 148,-267.62 142,-267.62 142,-267.62 20,-267.62 20,-267.62 14,-267.62 8,-261.62 8,-255.62 8,-255.62 8,-20 8,-20 8,-14 14,-8 20,-8"/>
<text xml:space="preserve" text-anchor="middle" x="81" y="-253.17" font-family="Helvetica,sans-Serif" font-size="11.00">Retrieval layer (supporting)</text>
</g>
<g id="clust3" class="cluster">
<title>cluster_specialists</title>
<path fill="#faf5ff" stroke="#7c3aed" d="M187,-10.88C187,-10.88 857,-10.88 857,-10.88 863,-10.88 869,-16.88 869,-22.88 869,-22.88 869,-152.87 869,-152.87 869,-158.87 863,-164.87 857,-164.87 857,-164.87 187,-164.87 187,-164.87 181,-164.87 175,-158.87 175,-152.87 175,-152.87 175,-22.88 175,-22.88 175,-16.88 181,-10.88 187,-10.88"/>
<text xml:space="preserve" text-anchor="middle" x="522" y="-150.42" font-family="Helvetica,sans-Serif" font-size="11.00">Internal Agent Specialists</text>
</g>
<g id="clust6" class="cluster">
<title>cluster_route_obs</title>
<path fill="#fffbeb" stroke="#ca8a04" d="M124,-708.37C124,-708.37 783,-708.37 783,-708.37 789,-708.37 795,-714.37 795,-720.37 795,-720.37 795,-881.12 795,-881.12 795,-887.12 789,-893.12 783,-893.12 783,-893.12 124,-893.12 124,-893.12 118,-893.12 112,-887.12 112,-881.12 112,-881.12 112,-720.37 112,-720.37 112,-714.37 118,-708.37 124,-708.37"/>
<text xml:space="preserve" text-anchor="middle" x="453.5" y="-878.67" font-family="Helvetica,sans-Serif" font-size="11.00">Route Observability</text>
</g>
<g id="clust8" class="cluster">
<title>cluster_approval</title>
<path fill="#fff7ed" stroke="#ea580c" d="M1071,-708.37C1071,-708.37 1279,-708.37 1279,-708.37 1285,-708.37 1291,-714.37 1291,-720.37 1291,-720.37 1291,-881.12 1291,-881.12 1291,-887.12 1285,-893.12 1279,-893.12 1279,-893.12 1071,-893.12 1071,-893.12 1065,-893.12 1059,-887.12 1059,-881.12 1059,-881.12 1059,-720.37 1059,-720.37 1059,-714.37 1065,-708.37 1071,-708.37"/>
<text xml:space="preserve" text-anchor="middle" x="1175" y="-878.67" font-family="Helvetica,sans-Serif" font-size="11.00">Validation &amp; Human Approval</text>
</g>
<g id="clust9" class="cluster">
<title>cluster_operator_hitl</title>
<path fill="#ecfdf5" stroke="#0f766e" d="M815,-808.62C815,-808.62 981,-808.62 981,-808.62 987,-808.62 993,-814.62 993,-820.62 993,-820.62 993,-1166.87 993,-1166.87 993,-1172.87 987,-1178.87 981,-1178.87 981,-1178.87 815,-1178.87 815,-1178.87 809,-1178.87 803,-1172.87 803,-1166.87 803,-1166.87 803,-820.62 803,-820.62 803,-814.62 809,-808.62 815,-808.62"/>
<text xml:space="preserve" text-anchor="middle" x="898" y="-1164.42" font-family="Helvetica,sans-Serif" font-size="11.00">Operator HITL (API)</text>
</g>
<!-- fastapi -->
<g id="node1" class="node">
<title>fastapi</title>
<ellipse fill="#dcfce7" stroke="black" cx="388" cy="-640.37" rx="54.29" ry="18"/>
<text xml:space="preserve" text-anchor="middle" x="388" y="-636.5" font-family="Helvetica,sans-Serif" font-size="10.00">FastAPI Request</text>
</g>
<!-- langgraph -->
<g id="node2" class="node">
<title>langgraph</title>
<path fill="#eef2ff" stroke="black" d="M428.38,-579.37C428.38,-579.37 345.62,-579.37 345.62,-579.37 339.62,-579.37 333.62,-573.37 333.62,-567.37 333.62,-567.37 333.62,-555.37 333.62,-555.37 333.62,-549.37 339.62,-543.37 345.62,-543.37 345.62,-543.37 428.38,-543.37 428.38,-543.37 434.38,-543.37 440.38,-549.37 440.38,-555.37 440.38,-555.37 440.38,-567.37 440.38,-567.37 440.38,-573.37 434.38,-579.37 428.38,-579.37"/>
<text xml:space="preserve" text-anchor="middle" x="387" y="-557.5" font-family="Helvetica,sans-Serif" font-size="10.00">LangGraph Workflow</text>
</g>
<!-- fastapi&#45;&gt;langgraph -->
<g id="edge1" class="edge">
<title>fastapi&#45;&gt;langgraph</title>
<path fill="none" stroke="#334155" d="M387.04,-622.05C387.04,-622.05 387.04,-591.38 387.04,-591.38"/>
<polygon fill="#334155" stroke="#334155" points="390.54,-591.38 387.04,-581.38 383.54,-591.38 390.54,-591.38"/>
</g>
<!-- normalize_request -->
<g id="node3" class="node">
<title>normalize_request</title>
<path fill="#ffffff" stroke="black" d="M421.75,-500.37C421.75,-500.37 350.25,-500.37 350.25,-500.37 344.25,-500.37 338.25,-494.37 338.25,-488.37 338.25,-488.37 338.25,-476.37 338.25,-476.37 338.25,-470.37 344.25,-464.37 350.25,-464.37 350.25,-464.37 421.75,-464.37 421.75,-464.37 427.75,-464.37 433.75,-470.37 433.75,-476.37 433.75,-476.37 433.75,-488.37 433.75,-488.37 433.75,-494.37 427.75,-500.37 421.75,-500.37"/>
<text xml:space="preserve" text-anchor="middle" x="386" y="-478.5" font-family="Helvetica,sans-Serif" font-size="10.00">normalize_request</text>
</g>
<!-- langgraph&#45;&gt;normalize_request -->
<g id="edge2" class="edge">
<title>langgraph&#45;&gt;normalize_request</title>
<path fill="none" stroke="#334155" d="M386,-543.05C386,-543.05 386,-512.38 386,-512.38"/>
<polygon fill="#334155" stroke="#334155" points="389.5,-512.38 386,-502.38 382.5,-512.38 389.5,-512.38"/>
</g>
<!-- route_workflow -->
<g id="node4" class="node">
<title>route_workflow</title>
<path fill="#ffffff" stroke="black" d="M414,-421.37C414,-421.37 356,-421.37 356,-421.37 350,-421.37 344,-415.37 344,-409.37 344,-409.37 344,-397.37 344,-397.37 344,-391.37 350,-385.37 356,-385.37 356,-385.37 414,-385.37 414,-385.37 420,-385.37 426,-391.37 426,-397.37 426,-397.37 426,-409.37 426,-409.37 426,-415.37 420,-421.37 414,-421.37"/>
<text xml:space="preserve" text-anchor="middle" x="385" y="-399.5" font-family="Helvetica,sans-Serif" font-size="10.00">route_workflow</text>
</g>
<!-- normalize_request&#45;&gt;route_workflow -->
<g id="edge3" class="edge">
<title>normalize_request&#45;&gt;route_workflow</title>
<path fill="none" stroke="#334155" d="M385,-464.05C385,-464.05 385,-433.38 385,-433.38"/>
<polygon fill="#334155" stroke="#334155" points="388.5,-433.38 385,-423.38 381.5,-433.38 388.5,-433.38"/>
</g>
<!-- retrieve_context -->
<g id="node5" class="node">
<title>retrieve_context</title>
<path fill="#f1f5f9" stroke="black" d="M414.88,-342.37C414.88,-342.37 353.12,-342.37 353.12,-342.37 347.12,-342.37 341.12,-336.37 341.12,-330.37 341.12,-330.37 341.12,-318.37 341.12,-318.37 341.12,-312.37 347.12,-306.37 353.12,-306.37 353.12,-306.37 414.88,-306.37 414.88,-306.37 420.88,-306.37 426.88,-312.37 426.88,-318.37 426.88,-318.37 426.88,-330.37 426.88,-330.37 426.88,-336.37 420.88,-342.37 414.88,-342.37"/>
<text xml:space="preserve" text-anchor="middle" x="384" y="-320.5" font-family="Helvetica,sans-Serif" font-size="10.00">retrieve_context</text>
</g>
<!-- route_workflow&#45;&gt;retrieve_context -->
<g id="edge4" class="edge">
<title>route_workflow&#45;&gt;retrieve_context</title>
<path fill="none" stroke="#334155" d="M385,-385.05C385,-385.05 385,-354.38 385,-354.38"/>
<polygon fill="#334155" stroke="#334155" points="388.5,-354.38 385,-344.38 381.5,-354.38 388.5,-354.38"/>
</g>
<!-- vendor_ticket_orchestrator -->
<g id="node6" class="node">
<title>vendor_ticket_orchestrator</title>
<path fill="#faf5ff" stroke="#7c3aed" stroke-width="1.5" d="M422.38,-239.62C422.38,-239.62 345.62,-239.62 345.62,-239.62 339.62,-239.62 333.62,-233.62 333.62,-227.62 333.62,-227.62 333.62,-215.62 333.62,-215.62 333.62,-209.62 339.62,-203.62 345.62,-203.62 345.62,-203.62 422.38,-203.62 422.38,-203.62 428.38,-203.62 434.38,-209.62 434.38,-215.62 434.38,-215.62 434.38,-227.62 434.38,-227.62 434.38,-233.62 428.38,-239.62 422.38,-239.62"/>
<text xml:space="preserve" text-anchor="middle" x="384" y="-223.37" font-family="Helvetica,sans-Serif" font-size="10.00">vendor_ticket_node</text>
<text xml:space="preserve" text-anchor="middle" x="384" y="-212.12" font-family="Helvetica,sans-Serif" font-size="10.00">Orchestrator</text>
</g>
<!-- retrieve_context&#45;&gt;vendor_ticket_orchestrator -->
<g id="edge5" class="edge">
<title>retrieve_context&#45;&gt;vendor_ticket_orchestrator</title>
<path fill="none" stroke="#334155" d="M384,-306C384,-306 384,-251.69 384,-251.69"/>
<polygon fill="#334155" stroke="#334155" points="387.5,-251.69 384,-241.69 380.5,-251.69 387.5,-251.69"/>
</g>
<!-- retrieval_strategy -->
<g id="node11" class="node">
<title>retrieval_strategy</title>
<path fill="#e0f2fe" stroke="black" d="M130.38,-239.62C130.38,-239.62 59.62,-239.62 59.62,-239.62 53.62,-239.62 47.62,-233.62 47.62,-227.62 47.62,-227.62 47.62,-215.62 47.62,-215.62 47.62,-209.62 53.62,-203.62 59.62,-203.62 59.62,-203.62 130.38,-203.62 130.38,-203.62 136.38,-203.62 142.38,-209.62 142.38,-215.62 142.38,-215.62 142.38,-227.62 142.38,-227.62 142.38,-233.62 136.38,-239.62 130.38,-239.62"/>
<text xml:space="preserve" text-anchor="middle" x="95" y="-217.75" font-family="Helvetica,sans-Serif" font-size="10.00">Retrieval Strategy</text>
</g>
<!-- retrieve_context&#45;&gt;retrieval_strategy -->
<g id="edge23" class="edge">
<title>retrieve_context&#45;&gt;retrieval_strategy</title>
<path fill="none" stroke="#334155" stroke-dasharray="5,2" d="M340.81,-324C268.56,-324 131.06,-324 131.06,-324 131.06,-324 131.06,-251.44 131.06,-251.44"/>
<polygon fill="#334155" stroke="#334155" points="134.56,-251.44 131.06,-241.44 127.56,-251.44 134.56,-251.44"/>
<text xml:space="preserve" text-anchor="middle" x="223.38" y="-276.82" font-family="Helvetica,sans-Serif" font-size="9.00">retrieve</text>
</g>
<!-- ticket_intent -->
<g id="node14" class="node">
<title>ticket_intent</title>
<path fill="#ffffff" stroke="black" d="M284.72,-136.87C284.72,-136.87 193.28,-136.87 193.28,-136.87 188.24,-136.87 183.2,-131.83 183.2,-126.79 183.2,-126.79 183.2,-116.71 183.2,-116.71 183.2,-111.67 188.24,-106.63 193.28,-106.63 193.28,-106.63 284.72,-106.63 284.72,-106.63 289.76,-106.63 294.8,-111.67 294.8,-116.71 294.8,-116.71 294.8,-126.79 294.8,-126.79 294.8,-131.83 289.76,-136.87 284.72,-136.87"/>
<text xml:space="preserve" text-anchor="middle" x="239" y="-117.88" font-family="Helvetica,sans-Serif" font-size="10.00">TicketIntentAgent</text>
</g>
<!-- vendor_ticket_orchestrator&#45;&gt;ticket_intent -->
<g id="edge25" class="edge">
<title>vendor_ticket_orchestrator&#45;&gt;ticket_intent</title>
<path fill="none" stroke="#334155" stroke-dasharray="5,2" d="M354.11,-202.93C354.11,-175.35 354.11,-127 354.11,-127 354.11,-127 306.72,-127 306.72,-127"/>
<polygon fill="#334155" stroke="#334155" points="306.72,-123.5 296.72,-127 306.72,-130.5 306.72,-123.5"/>
<text xml:space="preserve" text-anchor="middle" x="341.38" y="-174.07" font-family="Helvetica,sans-Serif" font-size="9.00">internal</text>
</g>
<!-- validate_output -->
<g id="node7" class="node">
<title>validate_output</title>
<path fill="#ffffff" stroke="black" d="M552,-658.37C552,-658.37 494,-658.37 494,-658.37 488,-658.37 482,-652.37 482,-646.37 482,-646.37 482,-634.37 482,-634.37 482,-628.37 488,-622.37 494,-622.37 494,-622.37 552,-622.37 552,-622.37 558,-622.37 564,-628.37 564,-634.37 564,-634.37 564,-646.37 564,-646.37 564,-652.37 558,-658.37 552,-658.37"/>
<text xml:space="preserve" text-anchor="middle" x="523" y="-636.5" font-family="Helvetica,sans-Serif" font-size="10.00">validate_output</text>
</g>
<!-- risk_and_approval -->
<g id="node8" class="node">
<title>risk_and_approval</title>
<path fill="#fef3c7" stroke="black" d="M625,-579.37C625,-579.37 513,-579.37 513,-579.37 507,-579.37 501,-573.37 501,-567.37 501,-567.37 501,-555.37 501,-555.37 501,-549.37 507,-543.37 513,-543.37 513,-543.37 625,-543.37 625,-543.37 631,-543.37 637,-549.37 637,-555.37 637,-555.37 637,-567.37 637,-567.37 637,-573.37 631,-579.37 625,-579.37"/>
<text xml:space="preserve" text-anchor="middle" x="569" y="-557.5" font-family="Helvetica,sans-Serif" font-size="10.00">risk_and_approval_decision</text>
</g>
<!-- validate_output&#45;&gt;risk_and_approval -->
<g id="edge32" class="edge">
<title>validate_output&#45;&gt;risk_and_approval</title>
<path fill="none" stroke="#334155" d="M532.5,-622.05C532.5,-622.05 532.5,-591.38 532.5,-591.38"/>
<polygon fill="#334155" stroke="#334155" points="536,-591.38 532.5,-581.38 529,-591.38 536,-591.38"/>
</g>
<!-- persist_trace -->
<g id="node9" class="node">
<title>persist_trace</title>
<path fill="#ffffff" stroke="black" d="M632.12,-500.37C632.12,-500.37 583.88,-500.37 583.88,-500.37 577.88,-500.37 571.88,-494.37 571.88,-488.37 571.88,-488.37 571.88,-476.37 571.88,-476.37 571.88,-470.37 577.88,-464.37 583.88,-464.37 583.88,-464.37 632.12,-464.37 632.12,-464.37 638.12,-464.37 644.12,-470.37 644.12,-476.37 644.12,-476.37 644.12,-488.37 644.12,-488.37 644.12,-494.37 638.12,-500.37 632.12,-500.37"/>
<text xml:space="preserve" text-anchor="middle" x="608" y="-478.5" font-family="Helvetica,sans-Serif" font-size="10.00">persist_trace</text>
</g>
<!-- risk_and_approval&#45;&gt;persist_trace -->
<g id="edge33" class="edge">
<title>risk_and_approval&#45;&gt;persist_trace</title>
<path fill="none" stroke="#334155" d="M604.44,-543.05C604.44,-543.05 604.44,-512.38 604.44,-512.38"/>
<polygon fill="#334155" stroke="#334155" points="607.94,-512.38 604.44,-502.38 600.94,-512.38 607.94,-512.38"/>
</g>
<!-- human_approval_required -->
<g id="node28" class="node">
<title>human_approval_required</title>
<path fill="#fef9c3" stroke="black" d="M1183.66,-861.19C1183.66,-861.19 1118.34,-838.55 1118.34,-838.55 1112.67,-836.58 1112.67,-832.66 1118.34,-830.69 1118.34,-830.69 1183.66,-808.05 1183.66,-808.05 1189.33,-806.08 1200.67,-806.08 1206.34,-808.05 1206.34,-808.05 1271.66,-830.69 1271.66,-830.69 1277.33,-832.66 1277.33,-836.58 1271.66,-838.55 1271.66,-838.55 1206.34,-861.19 1206.34,-861.19 1200.67,-863.16 1189.33,-863.16 1183.66,-861.19"/>
<text xml:space="preserve" text-anchor="middle" x="1195" y="-836.37" font-family="Helvetica,sans-Serif" font-size="10.00">Human Approval</text>
<text xml:space="preserve" text-anchor="middle" x="1195" y="-825.12" font-family="Helvetica,sans-Serif" font-size="10.00">Required?</text>
</g>
<!-- persist_trace&#45;&gt;human_approval_required -->
<g id="edge34" class="edge">
<title>persist_trace&#45;&gt;human_approval_required</title>
<path fill="none" stroke="#334155" d="M644.34,-482C769.53,-482 1175.19,-482 1175.19,-482 1175.19,-482 1175.19,-799.15 1175.19,-799.15"/>
<polygon fill="#334155" stroke="#334155" points="1171.69,-799.15 1175.19,-809.15 1178.69,-799.15 1171.69,-799.15"/>
</g>
<!-- end_node -->
<g id="node10" class="node">
<title>end_node</title>
<ellipse fill="#dcfce7" stroke="black" cx="631" cy="-640.37" rx="27" ry="18"/>
<text xml:space="preserve" text-anchor="middle" x="631" y="-636.5" font-family="Helvetica,sans-Serif" font-size="10.00">End</text>
</g>
<!-- vectorstore -->
<g id="node12" class="node">
<title>vectorstore</title>
<path fill="#bae6fd" stroke="black" d="M143.38,-136.48C143.38,-138.28 115.42,-139.75 81,-139.75 46.58,-139.75 18.62,-138.28 18.62,-136.48 18.62,-136.48 18.62,-107.02 18.62,-107.02 18.62,-105.22 46.58,-103.75 81,-103.75 115.42,-103.75 143.38,-105.22 143.38,-107.02 143.38,-107.02 143.38,-136.48 143.38,-136.48"/>
<path fill="none" stroke="black" d="M143.38,-136.48C143.38,-134.67 115.42,-133.2 81,-133.2 46.58,-133.2 18.62,-134.67 18.62,-136.48"/>
<text xml:space="preserve" text-anchor="middle" x="81" y="-117.88" font-family="Helvetica,sans-Serif" font-size="10.00">VectorStore / RAG Docs</text>
</g>
<!-- retrieval_strategy&#45;&gt;vectorstore -->
<g id="edge6" class="edge">
<title>retrieval_strategy&#45;&gt;vectorstore</title>
<path fill="none" stroke="#334155" d="M95,-203.3C95,-203.3 95,-151.47 95,-151.47"/>
<polygon fill="#334155" stroke="#334155" points="98.5,-151.47 95,-141.47 91.5,-151.47 98.5,-151.47"/>
</g>
<!-- rag_policy_context -->
<g id="node13" class="node">
<title>rag_policy_context</title>
<polygon fill="#e0f2fe" stroke="black" points="134.62,-52 29.38,-52 29.38,-16 140.62,-16 140.62,-46 134.62,-52"/>
<polyline fill="none" stroke="black" points="134.62,-52 134.62,-46"/>
<polyline fill="none" stroke="black" points="140.62,-46 134.62,-46"/>
<text xml:space="preserve" text-anchor="middle" x="85" y="-30.12" font-family="Helvetica,sans-Serif" font-size="10.00">RAG / Policy Context</text>
</g>
<!-- vectorstore&#45;&gt;rag_policy_context -->
<g id="edge7" class="edge">
<title>vectorstore&#45;&gt;rag_policy_context</title>
<path fill="none" stroke="#334155" d="M66.46,-103.57C66.46,-103.57 66.46,-63.97 66.46,-63.97"/>
<polygon fill="#334155" stroke="#334155" points="69.96,-63.97 66.46,-53.97 62.96,-63.97 69.96,-63.97"/>
</g>
<!-- policy_grounding -->
<g id="node15" class="node">
<title>policy_grounding</title>
<path fill="#ffffff" stroke="black" d="M483.32,-136.87C483.32,-136.87 384.68,-136.87 384.68,-136.87 379.64,-136.87 374.6,-131.83 374.6,-126.79 374.6,-126.79 374.6,-116.71 374.6,-116.71 374.6,-111.67 379.64,-106.63 384.68,-106.63 384.68,-106.63 483.32,-106.63 483.32,-106.63 488.36,-106.63 493.4,-111.67 493.4,-116.71 493.4,-116.71 493.4,-126.79 493.4,-126.79 493.4,-131.83 488.36,-136.87 483.32,-136.87"/>
<text xml:space="preserve" text-anchor="middle" x="434" y="-117.88" font-family="Helvetica,sans-Serif" font-size="10.00">PolicyGroundingAgent</text>
</g>
<!-- rag_policy_context&#45;&gt;policy_grounding -->
<g id="edge24" class="edge">
<title>rag_policy_context&#45;&gt;policy_grounding</title>
<path fill="none" stroke="#334155" stroke-dasharray="5,2" d="M103.54,-52.24C103.54,-67.57 103.54,-87 103.54,-87 103.54,-87 381.7,-87 381.7,-87 381.7,-87 381.7,-94.89 381.7,-94.89"/>
<polygon fill="#334155" stroke="#334155" points="378.2,-94.89 381.7,-104.89 385.2,-94.89 378.2,-94.89"/>
<text xml:space="preserve" text-anchor="middle" x="186.62" y="-74.2" font-family="Helvetica,sans-Serif" font-size="9.00">context</text>
</g>
<!-- ticket_intent&#45;&gt;policy_grounding -->
<g id="edge8" class="edge">
<title>ticket_intent&#45;&gt;policy_grounding</title>
<path fill="none" stroke="#334155" d="M295.14,-117C295.14,-117 362.66,-117 362.66,-117"/>
<polygon fill="#334155" stroke="#334155" points="362.66,-120.5 372.66,-117 362.66,-113.5 362.66,-120.5"/>
</g>
<!-- drafting -->
<g id="node16" class="node">
<title>drafting</title>
<path fill="#ffffff" stroke="black" d="M660.52,-136.87C660.52,-136.87 583.48,-136.87 583.48,-136.87 578.44,-136.87 573.4,-131.83 573.4,-126.79 573.4,-126.79 573.4,-116.71 573.4,-116.71 573.4,-111.67 578.44,-106.63 583.48,-106.63 583.48,-106.63 660.52,-106.63 660.52,-106.63 665.56,-106.63 670.6,-111.67 670.6,-116.71 670.6,-116.71 670.6,-126.79 670.6,-126.79 670.6,-131.83 665.56,-136.87 660.52,-136.87"/>
<text xml:space="preserve" text-anchor="middle" x="622" y="-117.88" font-family="Helvetica,sans-Serif" font-size="10.00">DraftingAgent</text>
</g>
<!-- policy_grounding&#45;&gt;drafting -->
<g id="edge9" class="edge">
<title>policy_grounding&#45;&gt;drafting</title>
<path fill="none" stroke="#334155" d="M493.74,-122C493.74,-122 561.59,-122 561.59,-122"/>
<polygon fill="#334155" stroke="#334155" points="561.59,-125.5 571.59,-122 561.59,-118.5 561.59,-125.5"/>
</g>
<!-- qa_check -->
<g id="node17" class="node">
<title>qa_check</title>
<path fill="#ffffff" stroke="black" d="M837.52,-136.87C837.52,-136.87 760.48,-136.87 760.48,-136.87 755.44,-136.87 750.4,-131.83 750.4,-126.79 750.4,-126.79 750.4,-116.71 750.4,-116.71 750.4,-111.67 755.44,-106.63 760.48,-106.63 760.48,-106.63 837.52,-106.63 837.52,-106.63 842.56,-106.63 847.6,-111.67 847.6,-116.71 847.6,-116.71 847.6,-126.79 847.6,-126.79 847.6,-131.83 842.56,-136.87 837.52,-136.87"/>
<text xml:space="preserve" text-anchor="middle" x="799" y="-117.88" font-family="Helvetica,sans-Serif" font-size="10.00">QACheckAgent</text>
</g>
<!-- drafting&#45;&gt;qa_check -->
<g id="edge10" class="edge">
<title>drafting&#45;&gt;qa_check</title>
<path fill="none" stroke="#334155" d="M670.83,-122C670.83,-122 738.5,-122 738.5,-122"/>
<polygon fill="#334155" stroke="#334155" points="738.5,-125.5 748.5,-122 738.5,-118.5 738.5,-125.5"/>
</g>
<!-- supervisor -->
<g id="node18" class="node">
<title>supervisor</title>
<path fill="#ffffff" stroke="black" d="M298.92,-49.12C298.92,-49.12 193.08,-49.12 193.08,-49.12 188.04,-49.12 183,-44.08 183,-39.04 183,-39.04 183,-28.96 183,-28.96 183,-23.92 188.04,-18.88 193.08,-18.88 193.08,-18.88 298.92,-18.88 298.92,-18.88 303.96,-18.88 309,-23.92 309,-28.96 309,-28.96 309,-39.04 309,-39.04 309,-44.08 303.96,-49.12 298.92,-49.12"/>
<text xml:space="preserve" text-anchor="middle" x="246" y="-30.12" font-family="Helvetica,sans-Serif" font-size="10.00">SupervisorRouterAgent</text>
</g>
<!-- qa_check&#45;&gt;supervisor -->
<g id="edge11" class="edge">
<title>qa_check&#45;&gt;supervisor</title>
<path fill="none" stroke="#334155" d="M802.2,-106.21C802.2,-90.65 802.2,-69 802.2,-69 802.2,-69 301.9,-69 301.9,-69 301.9,-69 301.9,-60.97 301.9,-60.97"/>
<polygon fill="#334155" stroke="#334155" points="305.4,-60.97 301.9,-50.97 298.4,-60.97 305.4,-60.97"/>
</g>
<!-- risk_review -->
<g id="node19" class="node">
<title>risk_review</title>
<path fill="#ffffff" stroke="black" d="M483.12,-49.12C483.12,-49.12 398.88,-49.12 398.88,-49.12 393.84,-49.12 388.8,-44.08 388.8,-39.04 388.8,-39.04 388.8,-28.96 388.8,-28.96 388.8,-23.92 393.84,-18.88 398.88,-18.88 398.88,-18.88 483.12,-18.88 483.12,-18.88 488.16,-18.88 493.2,-23.92 493.2,-28.96 493.2,-28.96 493.2,-39.04 493.2,-39.04 493.2,-44.08 488.16,-49.12 483.12,-49.12"/>
<text xml:space="preserve" text-anchor="middle" x="441" y="-30.12" font-family="Helvetica,sans-Serif" font-size="10.00">RiskReviewAgent</text>
</g>
<!-- supervisor&#45;&gt;risk_review -->
<g id="edge12" class="edge">
<title>supervisor&#45;&gt;risk_review</title>
<path fill="none" stroke="#334155" d="M309.31,-34C309.31,-34 376.92,-34 376.92,-34"/>
<polygon fill="#334155" stroke="#334155" points="376.92,-37.5 386.92,-34 376.92,-30.5 376.92,-37.5"/>
</g>
<!-- evidence -->
<g id="node20" class="node">
<title>evidence</title>
<path fill="#ffffff" stroke="black" d="M667.12,-49.12C667.12,-49.12 582.88,-49.12 582.88,-49.12 577.84,-49.12 572.8,-44.08 572.8,-39.04 572.8,-39.04 572.8,-28.96 572.8,-28.96 572.8,-23.92 577.84,-18.88 582.88,-18.88 582.88,-18.88 667.12,-18.88 667.12,-18.88 672.16,-18.88 677.2,-23.92 677.2,-28.96 677.2,-28.96 677.2,-39.04 677.2,-39.04 677.2,-44.08 672.16,-49.12 667.12,-49.12"/>
<text xml:space="preserve" text-anchor="middle" x="625" y="-30.12" font-family="Helvetica,sans-Serif" font-size="10.00">EvidenceBuilder</text>
</g>
<!-- risk_review&#45;&gt;evidence -->
<g id="edge13" class="edge">
<title>risk_review&#45;&gt;evidence</title>
<path fill="none" stroke="#334155" d="M493.23,-34C493.23,-34 560.8,-34 560.8,-34"/>
<polygon fill="#334155" stroke="#334155" points="560.8,-37.5 570.8,-34 560.8,-30.5 560.8,-37.5"/>
</g>
<!-- specialist_output -->
<g id="node21" class="node">
<title>specialist_output</title>
<polygon fill="#f5f3ff" stroke="black" points="856.16,-49.12 756.8,-49.12 756.8,-18.88 861.2,-18.88 861.2,-44.08 856.16,-49.12"/>
<polyline fill="none" stroke="black" points="856.16,-49.12 856.16,-44.08"/>
<polyline fill="none" stroke="black" points="861.2,-44.08 856.16,-44.08"/>
<text xml:space="preserve" text-anchor="middle" x="809" y="-30.12" font-family="Helvetica,sans-Serif" font-size="10.00">specialist_output</text>
</g>
<!-- evidence&#45;&gt;specialist_output -->
<g id="edge14" class="edge">
<title>evidence&#45;&gt;specialist_output</title>
<path fill="none" stroke="#334155" d="M677.23,-34C677.23,-34 744.8,-34 744.8,-34"/>
<polygon fill="#334155" stroke="#334155" points="744.8,-37.5 754.8,-34 744.8,-30.5 744.8,-37.5"/>
</g>
<!-- route_decision -->
<g id="node22" class="node">
<title>route_decision</title>
<path fill="#fef9c3" stroke="black" d="M512.31,-862.42C512.31,-862.42 403.44,-837.32 403.44,-837.32 397.6,-835.97 397.6,-833.27 403.44,-831.92 403.44,-831.92 512.31,-806.82 512.31,-806.82 518.15,-805.47 529.85,-805.47 535.69,-806.82 535.69,-806.82 644.56,-831.92 644.56,-831.92 650.4,-833.27 650.4,-835.97 644.56,-837.32 644.56,-837.32 535.69,-862.42 535.69,-862.42 529.85,-863.77 518.15,-863.77 512.31,-862.42"/>
<text xml:space="preserve" text-anchor="middle" x="524" y="-836.37" font-family="Helvetica,sans-Serif" font-size="10.00">Route Decision</text>
<text xml:space="preserve" text-anchor="middle" x="524" y="-825.12" font-family="Helvetica,sans-Serif" font-size="10.00">(route_after_vendor_ticket)</text>
</g>
<!-- specialist_output&#45;&gt;route_decision -->
<g id="edge26" class="edge">
<title>specialist_output&#45;&gt;route_decision</title>
<path fill="none" stroke="#334155" d="M852.24,-49.54C852.24,-159.19 852.24,-812 852.24,-812 852.24,-812 571.89,-812 571.89,-812"/>
<polygon fill="#334155" stroke="#334155" points="571.89,-808.5 561.89,-812 571.89,-815.5 571.89,-808.5"/>
</g>
<!-- qa_attention_review -->
<g id="node23" class="node">
<title>qa_attention_review</title>
<path fill="#fef9c3" stroke="black" d="M640.75,-752.37C640.75,-752.37 557.25,-752.37 557.25,-752.37 551.25,-752.37 545.25,-746.37 545.25,-740.37 545.25,-740.37 545.25,-728.37 545.25,-728.37 545.25,-722.37 551.25,-716.37 557.25,-716.37 557.25,-716.37 640.75,-716.37 640.75,-716.37 646.75,-716.37 652.75,-722.37 652.75,-728.37 652.75,-728.37 652.75,-740.37 652.75,-740.37 652.75,-746.37 646.75,-752.37 640.75,-752.37"/>
<text xml:space="preserve" text-anchor="middle" x="599" y="-736.12" font-family="Helvetica,sans-Serif" font-size="10.00">QA Attention Review</text>
<text xml:space="preserve" text-anchor="middle" x="599" y="-724.87" font-family="Helvetica,sans-Serif" font-size="10.00">(surfaces QA issues)</text>
</g>
<!-- route_decision&#45;&gt;qa_attention_review -->
<g id="edge15" class="edge">
<title>route_decision&#45;&gt;qa_attention_review</title>
<path fill="none" stroke="#334155" stroke-dasharray="5,2" d="M599,-821.1C599,-821.1 599,-764.28 599,-764.28"/>
<polygon fill="#334155" stroke="#334155" points="602.5,-764.28 599,-754.28 595.5,-764.28 602.5,-764.28"/>
</g>
<!-- escalation_review -->
<g id="node24" class="node">
<title>escalation_review</title>
<path fill="#fef9c3" stroke="black" d="M775,-752.37C775,-752.37 705,-752.37 705,-752.37 699,-752.37 693,-746.37 693,-740.37 693,-740.37 693,-728.37 693,-728.37 693,-722.37 699,-716.37 705,-716.37 705,-716.37 775,-716.37 775,-716.37 781,-716.37 787,-722.37 787,-728.37 787,-728.37 787,-740.37 787,-740.37 787,-746.37 781,-752.37 775,-752.37"/>
<text xml:space="preserve" text-anchor="middle" x="740" y="-730.5" font-family="Helvetica,sans-Serif" font-size="10.00">escalation_review</text>
</g>
<!-- route_decision&#45;&gt;escalation_review -->
<g id="edge16" class="edge">
<title>route_decision&#45;&gt;escalation_review</title>
<path fill="none" stroke="#334155" stroke-dasharray="5,2" d="M542.79,-808C595.34,-808 740,-808 740,-808 740,-808 740,-764.08 740,-764.08"/>
<polygon fill="#334155" stroke="#334155" points="743.5,-764.08 740,-754.08 736.5,-764.08 743.5,-764.08"/>
</g>
<!-- billing_review -->
<g id="node25" class="node">
<title>billing_review</title>
<path fill="#fef9c3" stroke="black" d="M182.25,-752.37C182.25,-752.37 131.75,-752.37 131.75,-752.37 125.75,-752.37 119.75,-746.37 119.75,-740.37 119.75,-740.37 119.75,-728.37 119.75,-728.37 119.75,-722.37 125.75,-716.37 131.75,-716.37 131.75,-716.37 182.25,-716.37 182.25,-716.37 188.25,-716.37 194.25,-722.37 194.25,-728.37 194.25,-728.37 194.25,-740.37 194.25,-740.37 194.25,-746.37 188.25,-752.37 182.25,-752.37"/>
<text xml:space="preserve" text-anchor="middle" x="157" y="-730.5" font-family="Helvetica,sans-Serif" font-size="10.00">billing_review</text>
</g>
<!-- route_decision&#45;&gt;billing_review -->
<g id="edge17" class="edge">
<title>route_decision&#45;&gt;billing_review</title>
<path fill="none" stroke="#334155" d="M434.69,-845C326.06,-845 157,-845 157,-845 157,-845 157,-764.15 157,-764.15"/>
<polygon fill="#334155" stroke="#334155" points="160.5,-764.15 157,-754.15 153.5,-764.15 160.5,-764.15"/>
</g>
<!-- style_guidance_review -->
<g id="node26" class="node">
<title>style_guidance_review</title>
<path fill="#fef9c3" stroke="black" d="M337.5,-752.37C337.5,-752.37 246.5,-752.37 246.5,-752.37 240.5,-752.37 234.5,-746.37 234.5,-740.37 234.5,-740.37 234.5,-728.37 234.5,-728.37 234.5,-722.37 240.5,-716.37 246.5,-716.37 246.5,-716.37 337.5,-716.37 337.5,-716.37 343.5,-716.37 349.5,-722.37 349.5,-728.37 349.5,-728.37 349.5,-740.37 349.5,-740.37 349.5,-746.37 343.5,-752.37 337.5,-752.37"/>
<text xml:space="preserve" text-anchor="middle" x="292" y="-730.5" font-family="Helvetica,sans-Serif" font-size="10.00">style_guidance_review</text>
</g>
<!-- route_decision&#45;&gt;style_guidance_review -->
<g id="edge18" class="edge">
<title>route_decision&#45;&gt;style_guidance_review</title>
<path fill="none" stroke="#334155" stroke-dasharray="5,2" d="M435.63,-824C370.07,-824 292,-824 292,-824 292,-824 292,-764.02 292,-764.02"/>
<polygon fill="#334155" stroke="#334155" points="295.5,-764.02 292,-754.02 288.5,-764.02 295.5,-764.02"/>
</g>
<!-- general_vendor_review -->
<g id="node27" class="node">
<title>general_vendor_review</title>
<path fill="#fef9c3" stroke="black" d="M492.88,-752.37C492.88,-752.37 401.12,-752.37 401.12,-752.37 395.12,-752.37 389.12,-746.37 389.12,-740.37 389.12,-740.37 389.12,-728.37 389.12,-728.37 389.12,-722.37 395.12,-716.37 401.12,-716.37 401.12,-716.37 492.88,-716.37 492.88,-716.37 498.88,-716.37 504.88,-722.37 504.88,-728.37 504.88,-728.37 504.88,-740.37 504.88,-740.37 504.88,-746.37 498.88,-752.37 492.88,-752.37"/>
<text xml:space="preserve" text-anchor="middle" x="447" y="-730.5" font-family="Helvetica,sans-Serif" font-size="10.00">general_vendor_review</text>
</g>
<!-- route_decision&#45;&gt;general_vendor_review -->
<g id="edge19" class="edge">
<title>route_decision&#45;&gt;general_vendor_review</title>
<path fill="none" stroke="#334155" stroke-dasharray="5,2" d="M448.31,-821.1C448.31,-821.1 448.31,-764.28 448.31,-764.28"/>
<polygon fill="#334155" stroke="#334155" points="451.81,-764.28 448.31,-754.28 444.81,-764.28 451.81,-764.28"/>
</g>
<!-- qa_attention_review&#45;&gt;validate_output -->
<g id="edge27" class="edge">
<title>qa_attention_review&#45;&gt;validate_output</title>
<path fill="none" stroke="#334155" d="M551.5,-716.25C551.5,-716.25 551.5,-670.27 551.5,-670.27"/>
<polygon fill="#334155" stroke="#334155" points="555,-670.27 551.5,-660.27 548,-670.27 555,-670.27"/>
</g>
<!-- escalation_review&#45;&gt;validate_output -->
<g id="edge28" class="edge">
<title>escalation_review&#45;&gt;validate_output</title>
<path fill="none" stroke="#334155" d="M721.7,-715.96C721.7,-697.88 721.7,-673 721.7,-673 721.7,-673 557.75,-673 557.75,-673 557.75,-673 557.75,-670.11 557.75,-670.11"/>
<polygon fill="#334155" stroke="#334155" points="561.25,-670.11 557.75,-660.11 554.25,-670.11 561.25,-670.11"/>
</g>
<!-- billing_review&#45;&gt;validate_output -->
<g id="edge29" class="edge">
<title>billing_review&#45;&gt;validate_output</title>
<path fill="none" stroke="#334155" d="M188.72,-715.92C188.72,-702.62 188.72,-687 188.72,-687 188.72,-687 487.72,-687 487.72,-687 487.72,-687 487.72,-670.31 487.72,-670.31"/>
<polygon fill="#334155" stroke="#334155" points="491.22,-670.31 487.72,-660.31 484.22,-670.31 491.22,-670.31"/>
</g>
<!-- style_guidance_review&#45;&gt;validate_output -->
<g id="edge30" class="edge">
<title>style_guidance_review&#45;&gt;validate_output</title>
<path fill="none" stroke="#334155" d="M341.61,-715.92C341.61,-708.65 341.61,-702 341.61,-702 341.61,-702 493.44,-702 493.44,-702 493.44,-702 493.44,-670.37 493.44,-670.37"/>
<polygon fill="#334155" stroke="#334155" points="496.94,-670.37 493.44,-660.37 489.94,-670.37 496.94,-670.37"/>
</g>
<!-- general_vendor_review&#45;&gt;validate_output -->
<g id="edge31" class="edge">
<title>general_vendor_review&#45;&gt;validate_output</title>
<path fill="none" stroke="#334155" d="M499.16,-716.25C499.16,-716.25 499.16,-670.27 499.16,-670.27"/>
<polygon fill="#334155" stroke="#334155" points="502.66,-670.27 499.16,-660.27 495.66,-670.27 502.66,-670.27"/>
</g>
<!-- human_approval -->
<g id="node29" class="node">
<title>human_approval</title>
<path fill="#ffedd5" stroke="#ea580c" stroke-width="1.5" d="M1143,-752.37C1143,-752.37 1079,-752.37 1079,-752.37 1073,-752.37 1067,-746.37 1067,-740.37 1067,-740.37 1067,-728.37 1067,-728.37 1067,-722.37 1073,-716.37 1079,-716.37 1079,-716.37 1143,-716.37 1143,-716.37 1149,-716.37 1155,-722.37 1155,-728.37 1155,-728.37 1155,-740.37 1155,-740.37 1155,-746.37 1149,-752.37 1143,-752.37"/>
<text xml:space="preserve" text-anchor="middle" x="1111" y="-730.5" font-family="Helvetica,sans-Serif" font-size="10.00">Human Approval</text>
</g>
<!-- human_approval_required&#45;&gt;human_approval -->
<g id="edge35" class="edge">
<title>human_approval_required&#45;&gt;human_approval</title>
<path fill="none" stroke="#334155" d="M1131,-826.07C1131,-826.07 1131,-764.53 1131,-764.53"/>
<polygon fill="#334155" stroke="#334155" points="1134.5,-764.53 1131,-754.53 1127.5,-764.53 1134.5,-764.53"/>
<text xml:space="preserve" text-anchor="middle" x="1153.12" y="-774.57" font-family="Helvetica,sans-Serif" font-size="9.00">yes</text>
</g>
<!-- final_response -->
<g id="node30" class="node">
<title>final_response</title>
<path fill="none" stroke="black" stroke-dasharray="5,2" d="M1270.62,-752.37C1270.62,-752.37 1207.38,-752.37 1207.38,-752.37 1201.38,-752.37 1195.38,-746.37 1195.38,-740.37 1195.38,-740.37 1195.38,-728.37 1195.38,-728.37 1195.38,-722.37 1201.38,-716.37 1207.38,-716.37 1207.38,-716.37 1270.62,-716.37 1270.62,-716.37 1276.62,-716.37 1282.62,-722.37 1282.62,-728.37 1282.62,-728.37 1282.62,-740.37 1282.62,-740.37 1282.62,-746.37 1276.62,-752.37 1270.62,-752.37"/>
<text xml:space="preserve" text-anchor="middle" x="1239" y="-736.12" font-family="Helvetica,sans-Serif" font-size="10.00">Final Response</text>
<text xml:space="preserve" text-anchor="middle" x="1239" y="-724.87" font-family="Helvetica,sans-Serif" font-size="10.00">(future / bypass)</text>
</g>
<!-- human_approval_required&#45;&gt;final_response -->
<g id="edge36" class="edge">
<title>human_approval_required&#45;&gt;final_response</title>
<path fill="none" stroke="#334155" stroke-dasharray="5,2" d="M1239,-818.96C1239,-818.96 1239,-764.15 1239,-764.15"/>
<polygon fill="#334155" stroke="#334155" points="1242.5,-764.15 1239,-754.15 1235.5,-764.15 1242.5,-764.15"/>
<text xml:space="preserve" text-anchor="middle" x="1227.25" y="-774.57" font-family="Helvetica,sans-Serif" font-size="9.00">no</text>
</g>
<!-- human_approval&#45;&gt;end_node -->
<g id="edge37" class="edge">
<title>human_approval&#45;&gt;end_node</title>
<path fill="none" stroke="#334155" d="M1111,-715.63C1111,-689.69 1111,-646 1111,-646 1111,-646 668.66,-646 668.66,-646"/>
<polygon fill="#334155" stroke="#334155" points="668.66,-642.5 658.66,-646 668.66,-649.5 668.66,-642.5"/>
</g>
<!-- operator_review -->
<g id="node31" class="node">
<title>operator_review</title>
<path fill="#ccfbf1" stroke="black" d="M959.75,-1150.87C959.75,-1150.87 864.25,-1150.87 864.25,-1150.87 858.25,-1150.87 852.25,-1144.87 852.25,-1138.87 852.25,-1138.87 852.25,-1126.87 852.25,-1126.87 852.25,-1120.87 858.25,-1114.87 864.25,-1114.87 864.25,-1114.87 959.75,-1114.87 959.75,-1114.87 965.75,-1114.87 971.75,-1120.87 971.75,-1126.87 971.75,-1126.87 971.75,-1138.87 971.75,-1138.87 971.75,-1144.87 965.75,-1150.87 959.75,-1150.87"/>
<text xml:space="preserve" text-anchor="middle" x="912" y="-1134.62" font-family="Helvetica,sans-Serif" font-size="10.00">POST /review&#45;actions</text>
<text xml:space="preserve" text-anchor="middle" x="912" y="-1123.37" font-family="Helvetica,sans-Serif" font-size="10.00">Operator Review Action</text>
</g>
<!-- human_approval&#45;&gt;operator_review -->
<g id="edge39" class="edge">
<title>human_approval&#45;&gt;operator_review</title>
<path fill="none" stroke="#334155" stroke-dasharray="5,2" d="M1093.67,-753.06C1093.67,-831.87 1093.67,-1133 1093.67,-1133 1093.67,-1133 983.75,-1133 983.75,-1133"/>
<polygon fill="#334155" stroke="#334155" points="983.75,-1129.5 973.75,-1133 983.75,-1136.5 983.75,-1129.5"/>
<text xml:space="preserve" text-anchor="middle" x="1076.75" y="-937.45" font-family="Helvetica,sans-Serif" font-size="9.00">operator action</text>
</g>
<!-- final_response&#45;&gt;end_node -->
<g id="edge38" class="edge">
<title>final_response&#45;&gt;end_node</title>
<path fill="none" stroke="#334155" stroke-dasharray="5,2" d="M1239,-715.96C1239,-686.98 1239,-634 1239,-634 1239,-634 668.25,-634 668.25,-634"/>
<polygon fill="#334155" stroke="#334155" points="668.25,-630.5 658.25,-634 668.25,-637.5 668.25,-630.5"/>
</g>
<!-- redraft_execute_gate -->
<g id="node32" class="node">
<title>redraft_execute_gate</title>
<path fill="#fef9c3" stroke="black" d="M886.68,-1067.88C886.68,-1067.88 822.82,-1045.36 822.82,-1045.36 817.16,-1043.37 817.16,-1039.37 822.82,-1037.38 822.82,-1037.38 886.68,-1014.86 886.68,-1014.86 892.34,-1012.87 903.66,-1012.87 909.32,-1014.86 909.32,-1014.86 973.18,-1037.38 973.18,-1037.38 978.84,-1039.37 978.84,-1043.37 973.18,-1045.36 973.18,-1045.36 909.32,-1067.88 909.32,-1067.88 903.66,-1069.87 892.34,-1069.87 886.68,-1067.88"/>
<text xml:space="preserve" text-anchor="middle" x="898" y="-1043.12" font-family="Helvetica,sans-Serif" font-size="10.00">execute=true</text>
<text xml:space="preserve" text-anchor="middle" x="898" y="-1031.87" font-family="Helvetica,sans-Serif" font-size="10.00">request_redraft?</text>
</g>
<!-- operator_review&#45;&gt;redraft_execute_gate -->
<g id="edge20" class="edge">
<title>operator_review&#45;&gt;redraft_execute_gate</title>
<path fill="none" stroke="#334155" d="M912,-1114.79C912,-1114.79 912,-1078.89 912,-1078.89"/>
<polygon fill="#334155" stroke="#334155" points="915.5,-1078.89 912,-1068.89 908.5,-1078.89 915.5,-1078.89"/>
</g>
<!-- controlled_redraft -->
<g id="node33" class="node">
<title>controlled_redraft</title>
<path fill="#99f6e4" stroke="black" d="M943.75,-959.12C943.75,-959.12 872.25,-959.12 872.25,-959.12 866.25,-959.12 860.25,-953.12 860.25,-947.12 860.25,-947.12 860.25,-935.12 860.25,-935.12 860.25,-929.12 866.25,-923.12 872.25,-923.12 872.25,-923.12 943.75,-923.12 943.75,-923.12 949.75,-923.12 955.75,-929.12 955.75,-935.12 955.75,-935.12 955.75,-947.12 955.75,-947.12 955.75,-953.12 949.75,-959.12 943.75,-959.12"/>
<text xml:space="preserve" text-anchor="middle" x="908" y="-942.87" font-family="Helvetica,sans-Serif" font-size="10.00">Controlled Redraft</text>
<text xml:space="preserve" text-anchor="middle" x="908" y="-931.62" font-family="Helvetica,sans-Serif" font-size="10.00">Execution</text>
</g>
<!-- redraft_execute_gate&#45;&gt;controlled_redraft -->
<g id="edge21" class="edge">
<title>redraft_execute_gate&#45;&gt;controlled_redraft</title>
<path fill="none" stroke="#334155" d="M908,-1013.98C908,-1013.98 908,-971.12 908,-971.12"/>
<polygon fill="#334155" stroke="#334155" points="911.5,-971.12 908,-961.12 904.5,-971.12 911.5,-971.12"/>
<text xml:space="preserve" text-anchor="middle" x="910.12" y="-981.32" font-family="Helvetica,sans-Serif" font-size="9.00">yes</text>
</g>
<!-- draft_pending_approval -->
<g id="node34" class="node">
<title>draft_pending_approval</title>
<path fill="#fef3c7" stroke="#ea580c" stroke-width="1.5" d="M971.12,-852.62C971.12,-852.62 868.88,-852.62 868.88,-852.62 862.88,-852.62 856.88,-846.62 856.88,-840.62 856.88,-840.62 856.88,-828.62 856.88,-828.62 856.88,-822.62 862.88,-816.62 868.88,-816.62 868.88,-816.62 971.12,-816.62 971.12,-816.62 977.12,-816.62 983.12,-822.62 983.12,-828.62 983.12,-828.62 983.12,-840.62 983.12,-840.62 983.12,-846.62 977.12,-852.62 971.12,-852.62"/>
<text xml:space="preserve" text-anchor="middle" x="920" y="-836.37" font-family="Helvetica,sans-Serif" font-size="10.00">New Draft</text>
<text xml:space="preserve" text-anchor="middle" x="920" y="-825.12" font-family="Helvetica,sans-Serif" font-size="10.00">Pending Human Approval</text>
</g>
<!-- controlled_redraft&#45;&gt;draft_pending_approval -->
<g id="edge22" class="edge">
<title>controlled_redraft&#45;&gt;draft_pending_approval</title>
<path fill="none" stroke="#334155" d="M908,-923.05C908,-923.05 908,-864.65 908,-864.65"/>
<polygon fill="#334155" stroke="#334155" points="911.5,-864.65 908,-854.65 904.5,-864.65 911.5,-864.65"/>
</g>
<!-- draft_pending_approval&#45;&gt;human_approval -->
<g id="edge40" class="edge">
<title>draft_pending_approval&#45;&gt;human_approval</title>
<path fill="none" stroke="#334155" stroke-dasharray="5,2" d="M983.83,-835C1028.54,-835 1080.33,-835 1080.33,-835 1080.33,-835 1080.33,-764.34 1080.33,-764.34"/>
<polygon fill="#334155" stroke="#334155" points="1083.83,-764.34 1080.33,-754.34 1076.83,-764.34 1083.83,-764.34"/>
<text xml:space="preserve" text-anchor="middle" x="997.5" y="-774.57" font-family="Helvetica,sans-Serif" font-size="9.00">re&#45;approve</text>
</g>
</g>
</svg>
